<svg xmlns="http://www.w3.org/2000/svg" xmlns:xlink="http://www.w3.org/1999/xlink" xmlns:lucid="lucid" width="1602" height="1495.46"><g transform="translate(1441 1080)" lucid:page-tab-id="0_0"><path d="M-1500-1500H500V500h-2000z" fill="#fff"/><path d="M-1420-774a6 6 0 0 1 6-6H134a6 6 0 0 1 6 6V388.46a6 6 0 0 1-6 6h-1548a6 6 0 0 1-6-6z" stroke="#232f3e" stroke-width="2" fill="#fff" fill-opacity="0"/><path d="M-1420-780h56v56h-56v-56z" stroke="#fff" stroke-opacity="0" fill="#232f3e"/><path d="M-1379.12-738.78h-25c-4.13.05-7.57-3.1-7.9-7.2v-.64c-.15-3.4 1.97-6.38 5.25-7.36v-.66c.12-4.22 2.44-7.75 6.24-9.57 4.13-1.86 8.73-.96 11.8 2.3 1.1 1.1 1.85 2.2 2.45 3.6 1.2-1 2.72-1.32 4.24-.9 2.24.8 3.68 2.74 3.76 5.1 3.68.65 6.32 3.8 6.28 7.56 0 7.07-7.04 7.73-7.12 7.76zm-26.7-13.88c-2.83.6-4.75 3.14-4.6 6.04v.53c.3 3.33 3.1 5.84 6.4 5.76h24.98c3.04-.3 5.4-2.64 5.68-5.7.28-3.43-2.24-6.5-5.68-6.78-.44-.05-.72-.44-.64-.87.08-1.83-1-3.44-2.72-4.13-1.32-.37-2.64.13-3.44 1.24-.2.25-.44.38-.76.33-.28-.05-.48-.24-.6-.5-.6-1.6-1.4-2.85-2.6-4.04-2.68-2.8-6.6-3.6-10.13-2-3.24 1.6-5.2 4.63-5.32 8.24-.04.4-.04.74 0 1.14.04.4-.2.76-.6.84z" stroke="#fff" stroke-opacity="0" fill="#fff"/><use xlink:href="#a" transform="matrix(1,0,0,1,-1349,-760) translate(0 14.4)"/><use xlink:href="#b" transform="matrix(1,0,0,1,-1349,-760) translate(45.3 14.4)"/><path d="M-1200-654a6 6 0 0 1 6-6H134a6 6 0 0 1 6 6v902.46a6 6 0 0 1-6 6h-1328a6 6 0 0 1-6-6z" stroke="#282c33" stroke-width="2" fill-opacity="0"/><path d="M-1040-374a6 6 0 0 1 6-6h468a6 6 0 0 1 6 6v599.37a6 6 0 0 1-6 6h-468a6 6 0 0 1-6-6z" fill-opacity="0"/><path d="M-1036.72-379.35l.87-.36.9-.23.95-.07h3m3.97 0h5.98m3.98 0h5.97m4 0h5.96m3.98 0h5.98m3.98 0h5.97m4 0h5.96m4 0h5.96m3.97 0h5.98m3.98 0h5.97m4 0h5.96m4 0h5.96m3.98 0h5.98m3.98 0h5.97m4 0h5.96m3.97 0h5.98m3.98 0h5.98m4 0h5.96m4 0h5.96m3.98 0h5.98m3.98 0h5.98m3.98 0h5.97m3.98 0h5.97m3.98 0h5.98m4 0h5.97m3.98 0h5.97m4 0h5.96m3.98 0h5.98m3.98 0h5.98m3.98 0h5.97m4 0h5.96m4 0h5.97m3.98 0h5.98m3.98 0h5.98m4 0h5.96m3.98 0h5.98m3.98 0h5.98m3.98 0h5.97m4 0h5.97m3.98 0h5.98m3.98 0h6m3.97 0h5.97m4 0h5.96m3.98 0h5.98m3.98 0h5.98m3.98 0h5.97m3.98 0h5.98m3.98 0h3l.94.07.9.22.88.35m2.63 2.63l.36.87.23.9.07.95v3m0 4v6m0 3.98v6m0 4v5.98m0 4v6m0 4v5.98m0 4v6m0 4v5.98m0 4v6m0 4v5.98m0 4v6m0 4v5.98m0 4v6m0 4v5.98m0 4v6m0 4v5.98m0 4v6m0 3.98v6m0 4v6m0 3.98v6m0 4v6m0 3.98v6m0 4v6m0 3.98v6m0 4v6m0 3.98v6m0 4v5.98m0 4v6m0 4v5.98m0 4v6m0 4v5.98m0 4v6m0 4v5.98m0 4v6m0 4v5.98m0 4v6m0 4v5.98m0 4v6m0 3.98v6m0 4v6m0 3.98v6m0 4v6m0 3.98v6m0 4v6m0 3.98v6m0 4v5.98m0 4v6m0 4v5.98m0 4v6m0 4v5.98m0 4v6m0 4v5.98m0 4v6m0 4v5.98m0 4v6m0 4v5.98m0 4v6m0 4v5.98m0 4v6m0 3.98v6m0 4v3l-.07.93-.22.92-.35.88m-2.63 2.62l-.87.36-.9.22-.95.07h-3m-3.97 0h-5.98m-3.98 0h-5.97m-4 0h-5.96m-3.98 0h-5.98m-3.98 0h-5.97m-4 0h-5.96m-4 0h-5.96m-3.97 0h-5.98m-3.98 0h-5.97m-4 0h-5.96m-4 0h-5.96m-3.98 0h-5.98m-3.98 0h-5.97m-4 0h-5.96m-3.97 0h-5.98m-3.98 0h-5.98m-4 0h-5.96m-4 0h-5.96m-3.98 0h-5.98m-3.98 0h-5.98m-3.98 0h-5.97m-3.98 0h-5.97m-3.98 0H-798m-4 0h-5.97m-3.98 0h-5.97m-4 0h-5.96m-3.98 0h-5.98m-3.98 0h-5.98m-3.98 0h-5.97m-4 0h-5.96m-4 0h-5.97m-3.98 0h-5.98m-3.98 0h-5.98m-4 0h-5.96m-3.98 0h-5.98m-3.98 0h-5.98m-3.98 0h-5.97m-4 0h-5.97m-3.98 0h-5.98m-3.98 0h-6m-3.97 0h-5.97m-4 0h-5.96m-3.98 0h-5.98m-3.98 0h-5.98m-3.98 0h-5.97m-3.98 0h-5.98m-3.98 0h-3l-.94-.07-.9-.22-.88-.36m-2.63-2.63l-.36-.88-.23-.9-.07-.95v-3m0-4v-6m0-3.98v-6m0-4v-6m0-4v-5.98m0-4v-6m0-4v-5.98m0-4v-6m0-4v-5.98m0-4v-6m0-4v-5.98m0-4v-6m0-4v-5.98m0-4v-6m0-3.98v-6m0-4v-6m0-3.98v-6m0-4v-6m0-3.98v-6m0-4v-6m0-3.98v-6m0-4v-6m0-3.98v-6m0-4v-5.98m0-4v-6m0-4v-5.98m0-4v-6m0-4v-5.98m0-4v-6m0-4v-5.98m0-4v-6m0-4v-5.98m0-4v-6m0-4v-5.98m0-4v-6m0-3.98v-6m0-4v-6m0-3.98v-6m0-4v-6m0-3.98v-6m0-4v-6m0-3.98v-6m0-4v-6m0-3.98v-6m0-4v-5.98m0-4v-6m0-4v-5.98m0-4v-6m0-4v-5.98m0-4v-6m0-4v-5.98m0-4v-6m0-4v-5.98m0-4v-6m0-4v-5.98m0-4v-6m0-4v-5.98m0-4v-6m0-3.98v-6m0-4v-6m0-3.98v-3l.07-.94.22-.9.35-.88" stroke="#282c33" stroke-width="2" fill="none"/><use xlink:href="#c" transform="matrix(1,0,0,1,-1032,-372) translate(145.91975308641975 17.77777777777778)"/><use xlink:href="#d" transform="matrix(1,0,0,1,-1032,-372) translate(251.41358024691357 17.77777777777778)"/><use xlink:href="#e" transform="matrix(1,0,0,1,-1032,-372) translate(305.7345679012345 17.77777777777778)"/><path d="M-380-374a6 6 0 0 1 6-6H94a6 6 0 0 1 6 6v599.37a6 6 0 0 1-6 6h-468a6 6 0 0 1-6-6z" fill-opacity="0"/><path d="M-376.72-379.35l.87-.36.9-.23.95-.07h3m3.97 0h5.97m4 0h5.96m4 0h5.96m3.98 0h5.98m3.98 0h5.97m4 0h5.96m3.98 0h6m3.97 0h5.98m3.98 0h5.97m4 0h5.96m4 0h5.96m3.98 0h5.98m3.98 0h5.97m4 0h5.96m3.97 0h5.98m3.98 0h5.98m4 0h5.96m4 0h5.96m3.98 0h5.98m3.98 0h5.98m3.98 0h5.97m3.98 0h5.97m3.98 0h5.98m4 0h5.97m3.98 0h5.97m4 0h5.96m3.98 0h5.98m3.98 0h5.98m3.98 0h5.97m4 0h5.96m4 0h5.97m3.98 0h5.98m3.98 0h5.98m4 0h5.96m3.98 0h5.98m3.98 0h5.97m4 0h5.96m4 0h5.97m3.98 0h5.98m3.98 0h5.98m4 0h5.96m4 0h5.96m3.98 0h5.98m3.98 0h5.97m4 0h5.97m4 0h5.96m3.98 0h3l.94.07.9.22.88.35m2.63 2.63l.36.87.23.9.07.95v3m0 4v6m0 3.98v6m0 4v5.98m0 4v6m0 4v5.98m0 4v6m0 4v5.98m0 4v6m0 4v5.98m0 4v6m0 4v5.98m0 4v6m0 4v5.98m0 4v6m0 4v5.98m0 4v6m0 3.98v6m0 4v6m0 3.98v6m0 4v6m0 3.98v6m0 4v6m0 3.98v6m0 4v6m0 3.98v6m0 4v5.98m0 4v6m0 4v5.98m0 4v6m0 4v5.98m0 4v6m0 4v5.98m0 4v6m0 4v5.98m0 4v6m0 4v5.98m0 4v6m0 3.98v6m0 4v6m0 3.98v6m0 4v6m0 3.98v6m0 4v6m0 3.98v6m0 4v5.98m0 4v6m0 4v5.98m0 4v6m0 4v5.98m0 4v6m0 4v5.98m0 4v6m0 4v5.98m0 4v6m0 4v5.98m0 4v6m0 4v5.98m0 4v6m0 3.98v6m0 4v3l-.07.93-.22.92-.35.88m-2.63 2.62l-.87.36-.9.22-.95.07h-3m-3.97 0h-5.97m-4 0H71.1m-3.98 0h-5.98m-3.98 0h-5.98m-3.98 0h-5.97m-4 0h-5.96m-3.98 0h-6m-3.97 0h-5.98m-3.98 0H1.4m-4 0h-5.96m-3.98 0h-5.98m-3.98 0h-5.98m-3.98 0h-5.97m-4 0h-5.96m-3.97 0h-5.98m-3.98 0h-5.98m-4 0h-5.96m-4 0h-5.96m-3.98 0h-5.98m-3.98 0h-5.98m-3.98 0h-5.97m-3.98 0h-5.97m-3.98 0H-138m-4 0h-5.97m-3.98 0h-5.97m-4 0h-5.96m-3.98 0h-5.98m-3.98 0h-5.98m-3.98 0h-5.97m-4 0h-5.96m-4 0h-5.97m-3.98 0h-5.98m-3.98 0h-5.98m-4 0h-5.96m-3.98 0h-5.98m-3.98 0h-5.97m-4 0h-5.96m-4 0h-5.97m-3.98 0h-5.98m-3.98 0h-6m-3.97 0h-5.97m-4 0h-5.96m-3.98 0h-5.98m-3.98 0h-5.98m-3.98 0h-5.97m-4 0H-367m-3.98 0h-3l-.94-.07-.9-.22-.88-.36m-2.63-2.63l-.36-.88-.23-.9-.07-.95v-3m0-4v-6m0-3.98v-6m0-4v-6m0-4v-5.98m0-4v-6m0-4v-5.98m0-4v-6m0-4v-5.98m0-4v-6m0-4v-5.98m0-4v-6m0-4v-5.98m0-4v-6m0-3.98v-6m0-4v-6m0-3.98v-6m0-4v-6m0-3.98v-6m0-4v-6m0-3.98v-6m0-4v-6m0-3.98v-6m0-4v-5.98m0-4v-6m0-4v-5.98m0-4v-6m0-4v-5.98m0-4v-6m0-4v-5.98m0-4v-6m0-4v-5.98m0-4v-6m0-4v-5.98m0-4v-6m0-3.98v-6m0-4v-6m0-3.98v-6m0-4v-6m0-3.98v-6m0-4v-6m0-3.98v-6m0-4v-6m0-3.98v-6m0-4v-5.98m0-4v-6m0-4v-5.98m0-4v-6m0-4v-5.98m0-4v-6m0-4v-5.98m0-4v-6m0-4v-5.98m0-4v-6m0-4v-5.98m0-4v-6m0-4v-5.98m0-4v-6m0-3.98v-6m0-4v-6m0-3.98v-3l.07-.94.22-.9.35-.88" stroke="#282c33" stroke-width="2" fill="none"/><use xlink:href="#f" transform="matrix(1,0,0,1,-372,-372) translate(143.4814814814815 17.77777777777778)"/><use xlink:href="#d" transform="matrix(1,0,0,1,-372,-372) translate(253.85185185185185 17.77777777777778)"/><use xlink:href="#g" transform="matrix(1,0,0,1,-372,-372) translate(308.17283950617286 17.77777777777778)"/><path d="M-100 2a30 30 0 0 1 30-30H50A30 30 0 0 1 80 2v128a30 30 0 0 1-30 30H-70a30 30 0 0 1-30-30z" stroke="#474747" fill-opacity="0"/><path d="M-38.03-39.76v-5.9c0-7.25-5.88-13.14-13.12-13.14-7.24 0-13.12 5.9-13.12 13.14v5.9h6.64v-5.9c0-3.58 2.9-6.5 6.48-6.5 3.57 0 6.48 2.92 6.48 6.5v5.9h6.64z" fill="#876a22"/><path d="M-38.02-39.74h5.42v20.83H-70v-20.84h5.72v-7.1c0-7.28 5.87-13.16 13.13-13.16 7.25 0 13.13 5.88 13.13 13.15v7.1zm-6.66 0v-7.1c0-3.58-2.88-6.5-6.47-6.5-3.6 0-6.47 2.92-6.47 6.5v7.1h12.94z" fill="#daa835"/><path d="M-70-18.9h37.4v.9H-70z" fill="#876a22"/><use xlink:href="#h" transform="matrix(1,0,0,1,-100,130) translate(7.574999999999989 12.799999999999999)"/><use xlink:href="#i" transform="matrix(1,0,0,1,-100,130) translate(49.52499999999999 12.799999999999999)"/><use xlink:href="#j" transform="matrix(1,0,0,1,-100,130) translate(103.425 12.799999999999999)"/><use xlink:href="#k" transform="matrix(1,0,0,1,-100,130) translate(162.425 12.799999999999999)"/><path d="M-360 2a30 30 0 0 1 30-30h120a30 30 0 0 1 30 30v128a30 30 0 0 1-30 30h-120a30 30 0 0 1-30-30z" stroke="#474747" fill-opacity="0"/><path d="M-298.03-39.76v-5.9c0-7.25-5.88-13.14-13.12-13.14-7.24 0-13.12 5.9-13.12 13.14v5.9h6.64v-5.9c0-3.58 2.9-6.5 6.48-6.5 3.57 0 6.48 2.92 6.48 6.5v5.9h6.64z" fill="#876a22"/><path d="M-298.02-39.74h5.42v20.83H-330v-20.84h5.72v-7.1c0-7.28 5.87-13.16 13.13-13.16 7.25 0 13.13 5.88 13.13 13.15v7.1zm-6.66 0v-7.1c0-3.58-2.88-6.5-6.47-6.5-3.6 0-6.47 2.92-6.47 6.5v7.1h12.94z" fill="#daa835"/><path d="M-330-18.9h37.4v.9H-330z" fill="#876a22"/><use xlink:href="#h" transform="matrix(1,0,0,1,-360,130) translate(4.075000000000003 12.799999999999999)"/><use xlink:href="#l" transform="matrix(1,0,0,1,-360,130) translate(46.025000000000006 12.799999999999999)"/><use xlink:href="#j" transform="matrix(1,0,0,1,-360,130) translate(106.925 12.799999999999999)"/><use xlink:href="#k" transform="matrix(1,0,0,1,-360,130) translate(165.925 12.799999999999999)"/><path d="M-1020 2a30 30 0 0 1 30-30h120a30 30 0 0 1 30 30v128a30 30 0 0 1-30 30h-120a30 30 0 0 1-30-30z" stroke="#474747" fill-opacity="0"/><path d="M-958.03-39.76v-5.9c0-7.25-5.88-13.14-13.12-13.14-7.24 0-13.12 5.9-13.12 13.14v5.9h6.64v-5.9c0-3.58 2.9-6.5 6.48-6.5 3.57 0 6.48 2.92 6.48 6.5v5.9h6.64z" fill="#876a22"/><path d="M-958.02-39.74h5.42v20.83H-990v-20.84h5.72v-7.1c0-7.28 5.87-13.16 13.13-13.16 7.25 0 13.13 5.88 13.13 13.15v7.1zm-6.66 0v-7.1c0-3.58-2.88-6.5-6.47-6.5-3.6 0-6.47 2.92-6.47 6.5v7.1h12.94z" fill="#daa835"/><path d="M-990-18.9h37.4v.9H-990z" fill="#876a22"/><use xlink:href="#h" transform="matrix(1,0,0,1,-1020,130) translate(4.075000000000003 12.799999999999999)"/><use xlink:href="#l" transform="matrix(1,0,0,1,-1020,130) translate(46.025000000000006 12.799999999999999)"/><use xlink:href="#j" transform="matrix(1,0,0,1,-1020,130) translate(106.925 12.799999999999999)"/><use xlink:href="#m" transform="matrix(1,0,0,1,-1020,130) translate(165.925 12.799999999999999)"/><path d="M-760 2a30 30 0 0 1 30-30h120a30 30 0 0 1 30 30v128a30 30 0 0 1-30 30h-120a30 30 0 0 1-30-30z" stroke="#474747" fill-opacity="0"/><path d="M-698.03-39.76v-5.9c0-7.25-5.88-13.14-13.12-13.14-7.24 0-13.12 5.9-13.12 13.14v5.9h6.64v-5.9c0-3.58 2.9-6.5 6.48-6.5 3.57 0 6.48 2.92 6.48 6.5v5.9h6.64z" fill="#876a22"/><path d="M-698.02-39.74h5.42v20.83H-730v-20.84h5.72v-7.1c0-7.28 5.87-13.16 13.13-13.16 7.25 0 13.13 5.88 13.13 13.15v7.1zm-6.66 0v-7.1c0-3.58-2.88-6.5-6.47-6.5-3.6 0-6.47 2.92-6.47 6.5v7.1h12.94z" fill="#daa835"/><path d="M-730-18.9h37.4v.9H-730z" fill="#876a22"/><use xlink:href="#h" transform="matrix(1,0,0,1,-760,130) translate(7.574999999999989 12.799999999999999)"/><use xlink:href="#i" transform="matrix(1,0,0,1,-760,130) translate(49.52499999999999 12.799999999999999)"/><use xlink:href="#j" transform="matrix(1,0,0,1,-760,130) translate(103.425 12.799999999999999)"/><use xlink:href="#m" transform="matrix(1,0,0,1,-760,130) translate(162.425 12.799999999999999)"/><path d="M-1380-21.13h100v100h-100v-100z" stroke="#fff" stroke-opacity="0" fill="#d6242d"/><path d="M-1326.13 53.4h-34.76c-.74 0-1.34-.6-1.34-1.37 0-.23.04-.43.2-.63l17.03-30.43c.2-.43.63-.7 1.08-.7.48 0 .9.2 1.16.6l4.8 7.35c.25.4.3.9.07 1.33l-6.92 13.3h14.83c.53 0 .98.3 1.2.77l3.86 8c.23.44.2.9-.07 1.34-.3.33-.68.46-1.13.43zm-32.55-2.7h30.4l-2.57-5.33h-16.18c-.5 0-.9-.23-1.16-.63-.22-.43-.22-.92 0-1.32l7.6-14.54-3.17-4.67zM-1312.74 53.4h-8.38c-.52 0-.94-.27-1.18-.7l-19.3-35c-.22-.37-.22-.8 0-1.17l3.12-6.98c.2-.5.64-.76 1.12-.8.52-.04.97.22 1.25.67l24.5 42.02c.37.67.16 1.47-.48 1.83-.2.13-.42.18-.66.18zm-7.62-2.68h5.34l-22.1-37.8-1.85 4.06zM-1299.1 53.38h-8.63c-.5 0-.9-.25-1.18-.7l-26.57-46.3c-.27-.45-.27-.93 0-1.33.22-.44.64-.68 1.13-.68h8.2c.48 0 .9.24 1.16.63l27.02 46.37c.38.64.15 1.47-.5 1.8-.18.16-.4.2-.63.2zm-7.88-2.65h5.54L-1326.9 7h-5.1z" stroke="#fff" stroke-opacity="0" fill="#fff"/><use xlink:href="#n" transform="matrix(1,0,0,1,-1410,87.8731040307913) translate(27.924999999999997 14.4)"/><use xlink:href="#o" transform="matrix(1,0,0,1,-1410,87.8731040307913) translate(73.225 14.4)"/><use xlink:href="#p" transform="matrix(1,0,0,1,-1410,87.8731040307913) translate(15.574999999999989 36)"/><use xlink:href="#q" transform="matrix(1,0,0,1,-1410,87.8731040307913) translate(78.475 36)"/><use xlink:href="#r" transform="matrix(1,0,0,1,-1410,87.8731040307913) translate(37.074999999999996 57.6)"/><path d="M-1000 0h40v40h-40V0z" stroke="#fff" stroke-opacity="0" stroke-width="2" fill="#d86613"/><path d="M-967.73 33.33h-6.58c-.22 0-.4-.1-.48-.3l-9.3-19.43H-988c-.3 0-.54-.24-.54-.53V7.2c0-.3.24-.53.53-.53h8.2c.22 0 .4.1.48.3l9.26 19.43h2.33c.3 0 .53.24.53.53v5.87c0 .3-.23.53-.53.53zm-6.23-1.06h5.7v-4.8h-2.14c-.2 0-.38-.1-.47-.3l-9.26-19.44h-7.34v4.8h3.73c.22 0 .4.1.5.3z" stroke="#fff" stroke-opacity="0" stroke-width="2" fill="#fff"/><path d="M-985.35 33.33h-6.93c-.18 0-.35-.1-.46-.24-.1-.2-.1-.38-.02-.55l7.26-15.15c.08-.2.27-.3.47-.3.2 0 .4.1.48.3l3.47 7.13c.1.15.1.3 0 .47l-3.78 8c-.07.2-.26.33-.5.33zm-6.08-1.07h5.75l3.53-7.45-2.87-5.95z" stroke="#fff" stroke-opacity="0" stroke-width="2" fill="#fff"/><use xlink:href="#s" transform="matrix(1,0,0,1,-1030,49) translate(15 14.4)"/><use xlink:href="#t" transform="matrix(1,0,0,1,-1030,49) translate(17.525 36)"/><use xlink:href="#u" transform="matrix(1,0,0,1,-1030,49) translate(18.525 57.6)"/><path d="M-300 0h40v40h-40V0z" stroke="#fff" stroke-opacity="0" stroke-width="2" fill="#3b48cc"/><path d="M-274.16 15.05c0-1.54-3.03-2.26-5.86-2.26-2.84 0-5.87.7-5.87 2.25 0 .1.02.15.03.24v9.6c-.02 1.62 3.02 2.3 5.87 2.3 2.86 0 5.87-.7 5.87-2.25v-9.9zm-5.85-1.2c3.1 0 4.8.86 4.8 1.2 0 .35-1.7 1.2-4.8 1.2-3.14 0-4.8-.84-4.8-1.2 0-.34 1.67-1.2 4.8-1.2zm4.8 11.1c0 .34-1.7 1.18-4.8 1.18-3.13 0-4.8-.84-4.8-1.18v-1.7c1.1.63 3 .92 4.8.92 1.77 0 3.64-.3 4.8-.9zm0-3.04c0 .36-1.7 1.2-4.8 1.2-3.14 0-4.8-.85-4.8-1.2V19.9c1.13.6 3 .9 4.8.9 1.8 0 3.66-.3 4.8-.9zm0-3.4c0 .36-1.7 1.22-4.8 1.22-3.14 0-4.8-.86-4.8-1.2v-2.08c1.14.6 3 .88 4.8.88 1.8 0 3.7-.3 4.8-.9zM-291.5 32.27h3.5v1.07h-4.8c-.3 0-.53-.24-.53-.54V28h1.06v3.5l4-3.98.75.75zM-266.67 28v4.8c0 .3-.23.54-.53.54h-4.8v-1.07h3.5l-3.93-3.95.76-.75 3.94 3.94V28zM-266.67 7.2V12h-1.06V8.5l-3.94 3.95-.76-.76 3.94-3.93h-3.5V6.67h4.8c.3 0 .53.24.53.54zM-287.52 11.73l-.74.75-4-4V12h-1.07V7.2c0-.3.23-.54.53-.54h4.8v1.07h-3.5zM-288.18 24.78c-3.26-1.17-5.13-2.97-5.13-4.9 0-1.96 1.86-3.75 5.12-4.92l.36 1c-2.76 1-4.42 2.45-4.42 3.9 0 1.46 1.66 2.9 4.42 3.92zM-272.12 24.9l-.34-1.02c2.96-1 4.73-2.5 4.73-4 0-1.53-1.77-3.03-4.73-4.04l.34-1c3.47 1.16 5.45 3 5.45 5.03 0 2.02-1.98 3.85-5.45 5.03z" stroke="#fff" stroke-opacity="0" stroke-width="2" fill="#fff"/><use xlink:href="#v" transform="matrix(1,0,0,1,-330,49) translate(11.524999999999999 14.4)"/><use xlink:href="#w" transform="matrix(1,0,0,1,-330,49) translate(17.025 36)"/><use xlink:href="#x" transform="matrix(1,0,0,1,-330,49) translate(31.049999999999997 57.6)"/><path d="M-1200-660h60v60h-60v-60z" stroke="#fff" stroke-opacity="0" fill="#693cc5"/><path d="M-1170.84-622.78h-11.2c-4.4 0-7.73-2.92-7.98-6.97v-.55c-.12-3.47 2.1-6.5 5.45-7.4v-.64c.12-6.04 5.08-10.82 11.13-10.72 2.96.05 5.52 1.16 7.6 3.3 1.08 1.1 1.88 2.2 2.53 3.6.9-.73 1.9-1.1 3.07-1.1 2.32 0 4.8 1.66 5.2 5.37 2.08.4 3.68 1.37 5.05 2.98l-1.24 1c-1.3-1.45-2.8-2.26-4.65-2.55-.4-.06-.68-.35-.68-.74-.2-3.08-2-4.45-3.68-4.45-1.12 0-2.08.5-2.72 1.4-.2.23-.48.36-.76.3-.34-.04-.53-.23-.65-.52-.57-1.63-1.37-2.9-2.6-4.12-1.77-1.8-3.9-2.75-6.45-2.83-5.13-.13-9.4 3.94-9.57 9.1 0 .38.04.73.08 1.12.05.38-.2.75-.6.86-1.8.44-4.87 1.84-4.87 6.04v.45c.2 3.2 2.84 5.46 6.4 5.46h11.2z" stroke="#fff" stroke-opacity="0" fill="#fff"/><path d="M-1159.65-611c-9.48 0-9.6-10.65-9.6-10.75v-9.75c0-.35.2-.64.52-.74l8.8-3.26c.2-.08.38-.08.57 0l8.8 3.26c.32.1.5.4.5.74v10.34c0 .1-.1 10.17-9.6 10.17zm-8-19.94v9.2c0 .36.1 9.15 8 9.15s8-8.22 8-8.56v-9.78l-8-2.97z" stroke="#fff" stroke-opacity="0" fill="#fff"/><path d="M-1159.65-613.98c-5.08 0-6.34-6.45-6.4-6.73V-629.16c0-.33.2-.6.5-.73l5.6-2.22c.2-.07.4-.07.6 0l5.6 2.22c.3.12.5.4.5.74V-620.7c-.06.27-1.3 6.72-6.4 6.72zm-4.8-6.96c.13.6 1.28 5.36 4.8 5.36 3.54 0 4.68-4.75 4.8-5.36v-7.65l-4.8-1.88-4.8 1.9z" stroke="#fff" stroke-opacity="0" fill="#fff"/><use xlink:href="#y" transform="matrix(1,0,0,1,-1230,-591) translate(6.049999999999997 14.4)"/><use xlink:href="#z" transform="matrix(1,0,0,1,-1230,-591) translate(77 14.4)"/><path d="M-1087.3 360h-65.4c-.98 0-1.74-.82-1.74-1.72v-78.43c0-.9.76-1.72 1.73-1.72h65.4c.98 0 1.74.82 1.74 1.72v78.43c0 .9-.76 1.72-1.73 1.72zm-63.62-3.52h61.84v-74.83h-61.84z" stroke="#fff" stroke-opacity="0" fill="#cd2264"/><path d="M-1129.8 302.85h-11.45c-.97 0-1.75-.78-1.75-1.75v-11.42c0-.97.78-1.74 1.75-1.74h11.45c.97 0 1.74.77 1.74 1.74v11.42c0 .97-.77 1.75-1.74 1.75zm-9.72-3.5h7.98v-7.92h-7.98zM-1129.8 325.7h-11.45c-.97 0-1.75-.77-1.75-1.74v-11.42c0-.97.78-1.75 1.75-1.75h11.45c.97 0 1.74.77 1.74 1.74v11.42c0 .97-.77 1.74-1.74 1.74zm-9.72-3.5h7.98v-7.92h-7.98zM-1129.8 348.57h-11.45c-.97 0-1.75-.77-1.75-1.74V335.4c0-.96.78-1.74 1.75-1.74h11.45c.97 0 1.74.78 1.74 1.75v11.43c0 .97-.77 1.74-1.74 1.74zm-9.72-3.5h7.98v-7.92h-7.98zM-1123.26 296.1h27.8v3.47h-27.8v-3.48zM-1123.26 318.96h27.8v3.48h-27.8v-3.48zM-1123.26 341.8h27.8v3.5h-27.8v-3.5z" stroke="#fff" stroke-opacity="0" fill="#cd2264"/><use xlink:href="#A" transform="matrix(1,0,0,1,-1184.4365520153956,369) translate(28.074999999999996 14.4)"/><path d="M-1080 144h-80v-24h80zm-76.56-3.38h73.12V123.4l-73.12-.02zM-1121.5 171.02h-38.5v-24.04h38.5zm-35.1-3.4h31.7v-17.25h-31.7zM-1135.85 198H-1160v-24h24.15zm-20.74-3.38h17.35v-17.25h-17.34zM-1107.13 198h-25.74v-24h25.74zm-22.34-3.38h18.94v-17.25h-18.94zM-1080 198h-24.15v-24h24.15zm-20.75-3.38h17.34v-17.25h-17.35zM-1080 171.02h-38.52v-24.04h38.52zm-35.13-3.4h31.74v-17.25h-31.73z" stroke="#fff" stroke-opacity="0" fill="#cd2264"/><path d="M-1158.4 121.78h76.58v74.43h-76.58V121.8z" stroke="#fff" stroke-opacity="0" stroke-width=".4" fill="#fff" fill-opacity="0"/><use xlink:href="#B" transform="matrix(1,0,0,1,-1190,207) translate(47.5 14.4)"/><path d="M-694.04 20h48.08v40h-48.08V20z" stroke="#000" stroke-opacity="0" fill="url(#C)"/><path d="M-677.5 45.64h14.28V34.36h-14.3v11.28zm15.77-11.28h2.25v1.26h-2.25v1.24h2.25v1.27h-2.25v1.24h2.25v1.26h-2.25v1.87h2.25v1.24h-2.25V45h2.25v1.25h-2.35c-.2.38-.63.63-1.16.63h-.22v1.87h-1.52v-1.87h-1.5v1.87h-1.5v-1.87h-1.5v1.87h-1.52v-1.87h-1.5v1.87h-1.5v-1.87h-2.26v1.87h-1.5v-1.87h-.25c-.53 0-.96-.25-1.16-.63h-1.6V45h1.5v-1.26h-1.5V42.5h1.5v-1.87h-1.5v-1.26h1.5v-1.24h-1.5v-1.27h1.5v-1.24h-1.5v-1.26h1.5v-.2c0-.57.56-1.04 1.26-1.04h.26v-1.87h1.48v1.87h2.25v-1.87h1.52v1.87h1.5v-1.87h1.5v1.87h1.5v-1.87h1.52v1.87h1.5v-1.87h1.5v1.87h.24c.7 0 1.27.47 1.27 1.05v.2zM-670 52.52h-15.05V40h3v-1.24h-3.1c-.76 0-1.4.5-1.4 1.13v12.7c0 .64.64 1.16 1.4 1.16h15.28c.76 0 1.36-.52 1.36-1.16v-2.58h-1.5v2.5zm16.54-25.12v12.7c0 .64-.63 1.14-1.4 1.14h-3.1V40h3V27.48H-670v2.5h-1.5V27.4c0-.64.6-1.16 1.37-1.16h15.28c.76 0 1.4.52 1.4 1.16z" stroke="#000" stroke-opacity="0" fill="#fff"/><use xlink:href="#y" transform="matrix(1,0,0,1,-724.0427637923572,69) translate(1.5499999999999972 14.4)"/><use xlink:href="#D" transform="matrix(1,0,0,1,-724.0427637923572,69) translate(72.5 14.4)"/><use xlink:href="#E" transform="matrix(1,0,0,1,-724.0427637923572,69) translate(3.549999999999997 36)"/><use xlink:href="#F" transform="matrix(1,0,0,1,-724.0427637923572,69) translate(68.5 36)"/><path d="M-1148.87 0h57.74v57.75h-57.74V0z" stroke="#fff" stroke-opacity="0" fill="#d6242d"/><path d="M-1111.53 47.36c-.17 0-.3-.07-.45-.15-.2-.13-.32-.36-.32-.62V11.16c0-.26.14-.52.37-.67.23-.15.52-.15.76-.04l10.02 4.9v.02c.27.1.43.36.43.66v27.22c0 .37-.2.66-.53.77l-10 3.33h-.28zm.78-34.94v33.1l8.47-2.82V16.52zM-1128.47 47.36h-.25l-10-3.33c-.33-.1-.54-.44-.53-.77V16.04c0-.3.16-.55.43-.66l10-4.92c.26-.1.54-.1.78.03.24.14.36.4.36.66v35.42c0 .26-.1.48-.32.63-.14.12-.3.16-.47.16zm-9.24-4.62l8.46 2.8V12.43l-8.47 4.14z" stroke="#fff" stroke-opacity="0" fill="#fff"/><path d="M-1112.3 21.17h-2.3v-1.54h2.3zm-4.63 0h-2.3v-1.54h2.3zm-4.6 0h-2.32v-1.54h2.32zm-4.63 0h-2.3v-1.54h2.3zM-1112.3 38.1h-2.3v-1.53h2.3zm-4.63 0h-2.3v-1.53h2.3zm-4.6 0h-2.32v-1.53h2.32zm-4.63 0h-2.3v-1.53h2.3zM-1123.38 31.52l-2.9-2.47c-.32-.27-.36-.76-.08-1.1l.1-.07 2.87-2.47 1 1.18-2.2 1.9 2.2 1.9zM-1116.6 31.52l-1-1.17 2.2-1.86-2.22-1.9 1-1.2 2.9 2.47c.32.28.36.77.08 1.1-.03.02-.05.05-.1.07z" stroke="#fff" stroke-opacity="0" fill="#fff"/><path d="M-1122.27 33.14l3.07-9.05 1.46.5-3.07 9.04-1.47-.5z" stroke="#fff" stroke-opacity="0" stroke-width=".32" fill="#fff"/><use xlink:href="#y" transform="matrix(1,0,0,1,-1178.8731040307912,66.74620806158259) translate(9.024999999999999 14.4)"/><use xlink:href="#G" transform="matrix(1,0,0,1,-1178.8731040307912,66.74620806158259) translate(79.975 14.4)"/><use xlink:href="#H" transform="matrix(1,0,0,1,-1178.8731040307912,66.74620806158259) translate(23.525 36)"/><path d="M-1082.14 28.87h3.14m4.18 0h6.27m4.18 0h6.27m4.18 0h6.27m4.18 0h6.27m4.18 0h6.26m4.18 0h6.27m4.17 0h3.14" stroke="#3a414a" stroke-width="2" fill="none"/><path d="M-1089.16 28.87l12.9-7.63V36.5zM-1001.96 28.87l-12.92 7.64V21.25z" stroke="#3a414a" stroke-width="2" fill="#3a414a"/><path d="M-980-9v-2.93m0-3.92v-5.88m0-3.92v-5.88m0-3.92v-5.88m0-3.92v-5.88m0-3.92v-5.88m0-3.92v-5.88m0-3.92v-5.88m0-3.92v-5.88m0-3.92v-5.9m0-3.9v-5.9m0-3.9v-5.9m0-3.9v-5.9m0-3.9v-5.9m0-3.9v-5.9m0-3.9v-5.9m0-3.9v-5.9m0-3.9v-5.9m0-3.9v-5.9m0-3.9v-5.9m0-3.9v-5.9m0-3.9v-5.9m0-3.9v-5.9m0-3.9v-5.9m0-3.9v-5.9m0-3.9V-254l.07-.94.22-.9.35-.88m2.63-2.63l.87-.36.9-.23.95-.07h3m4.02 0h6m4.02 0h6.02m4 0h6.02m4 0h6.03m4.02 0h6m4.02 0h6.02m4 0h6.02m4 0h6.03m4.02 0h6m4.02 0h6.02m4 0h6.02m4 0h6.03m4.02 0h6m4.02 0h6.02m4 0h6.02m4 0h6.03m4.02 0h6m4.02 0h6.02m4 0h6.02m4 0h6.03m4.02 0h6m4.02 0h6.02m4 0h6.02m4 0h6.03m4.02 0h6m4.02 0h6.02m4 0h6.02m4 0h6.03m4.02 0h6m4.02 0h6.02m4 0h6.02m4 0h6.03m4.02 0h6m4.02 0h6.02m4 0h6.02m4 0h6.03m4.02 0h6m4.02 0h6.02m4 0h6.02m4 0h6.03m4.02 0h6m4.02 0h6.02m4 0h6.02m4 0h6.02m4 0h6.03m4 0h6.02m4.02 0h6m4.02 0h6m4 0h6.03m4 0h6.02m4 0h6.03m4 0h6.03m4 0h6.03m4 0h6.03m4 0h6.02m4 0h6.02m4.02 0h6m4.02 0h6m4.02 0h6.02m4 0h6.02m4 0h6.03m4 0h6.03m4 0h6.02m4 0h6.02m4 0h6.03m4 0h6.02m4 0h6.03m4 0h6.02m4 0h3.02l.94.07.92.22.87.35m2.62 2.63l.36.87.22.9.07.95v2.94m0 3.92v5.88m0 3.92v5.88m0 3.92v5.88m0 3.92v5.88m0 3.92v5.88m0 3.92v5.88m0 3.92v5.88m0 3.92v5.88m0 3.92v5.88m0 3.92v5.88m0 3.92v5.88m0 3.92v5.88m0 3.92v5.88m0 3.92v5.88m0 3.92v5.88m0 3.92v5.9m0 3.9v5.9m0 3.9v5.9m0 3.9v5.9m0 3.9v5.9m0 3.9v5.9m0 3.9v5.9m0 3.9v5.9m0 3.9v5.9m0 3.9v2.95" stroke="#3a414a" stroke-width="2" fill="none"/><path d="M-980-1.96l-7.64-12.92h15.28zM-276.28-1.96l-7.63-12.92h15.26z" stroke="#3a414a" stroke-width="2" fill="#3a414a"/><path d="M-645.46 40h1.52m2 0h3.04m2.02 0h3.03m2 0h3.04m2 0h3.03m2.02 0h3.03m2.02 0h3.03m2 0h3.04m2.02 0h3m2.03 0h3.03m2.02 0h3.02m2.02 0h3.03m2.02 0h3.02m2 0h3.04m2.02 0h3.02m2.02 0h3.03m2.02 0h3.02m2.02 0h3.02m2.02 0h3.02m2.02 0h3.03m2.02 0h3.03m2.02 0h3.03m2 0h3.04m2.02 0h3.03m2 0h3.03m2.02 0h3.03m2 0h3.04m2.02 0h3.03m2 0h3.04m2.03 0h3.03m2 0h3.04m2.02 0h3.02m2.02 0h3.03m2 0h1.52l.94-.07.46-.1m1.73-.73l.4-.25.7-.6.63-.72.24-.4m.72-1.73l.1-.46.08-.94v-1.2m0-1.6v-2.4m0-1.6V26l.08-.94.1-.46m.72-1.73l.25-.4.6-.7.73-.62.4-.25m1.73-.72l.45-.1.94-.08h1.5m2 0h3m2 0h3m2 0h3m2 0h3.02m2 0h3m2 0h3m2 0h3m2 0h3m2 0h3m2 0h3m2.02 0h3m2 0h3m2 0h3m2 0h3m2 0h3m2 0h3m2.02 0h3m2 0h3m2 0h3m2 0h3m2 0h3m2 0h3.02m2 0h3m2 0h3m2 0h3m2 0h3m2 0h3m2 0h3m2.02 0h3m2 0h3m2 0h3m2 0h1.5" stroke="#3a414a" fill="none"/><path d="M-645.44 40.48h-.52v-.95h.52z" stroke="#3a414a" stroke-width=".05" fill="#3a414a"/><path d="M-300.98 20l-12.9 7.64V12.36z" stroke="#3a414a" fill="#3a414a"/><path d="M-1390-320h120v120h-120v-120z" stroke="#fff" stroke-opacity="0" fill="#d6242d"/><path d="M-1294.48-289.6h-71.04c-2.48 0-4.48 2-4.48 4.5v50.2c0 2.5 2 4.5 4.48 4.5h71.04c2.48 0 4.48-2 4.48-4.5v-50.2c0-2.5-2-4.5-4.48-4.5zm1.28 54.7c0 .7-.56 1.3-1.28 1.3h-71.04c-.72 0-1.28-.6-1.28-1.3v-50.2c0-.7.56-1.3 1.28-1.3h71.04c.72 0 1.28.6 1.28 1.3z" stroke="#fff" stroke-opacity="0" fill="#fff"/><path d="M-1325.2-268.8h16v3.2h-16v-3.2zM-1302.8-268.8h3.2v3.2h-3.2v-3.2zM-1332.08-263.5c-.3-.35-.67-.52-1.12-.52h-22.4v-8c.03-1.85.86-3.45 2.4-4.53 1.7-1.3 3.5-1.85 5.6-1.85 2.18-.05 4.06.64 5.76 2.03 1.4 1.08 2.18 2.6 2.24 4.36v7.98h3.2v-8.64c-.06-2.63-1.25-4.84-3.4-6.4-2.33-1.76-4.86-2.58-7.8-2.54-6.18 0-11.2 4.02-11.2 8.94v8.64h-3.2c-.9 0-1.6.74-1.6 1.6V-240c0 .87.7 1.6 1.6 1.6h28.8c.9 0 1.6-.73 1.6-1.6v-22.42c0-.43-.16-.78-.45-1.08zm-2.72 7.52h-4.8v3.2h4.8v3.2h-4.8v3.2h4.8v4.78h-25.6v-19.18h25.6z" stroke="#fff" stroke-opacity="0" fill="#fff"/><path d="M-1347.6-258.3c-2 .03-3.7 1.2-4.38 3.1-.9 2.4.35 5.1 2.78 6v4.4h3.2v-4.4c1.88-.7 3.06-2.38 3.07-4.38 0-2.6-2.08-4.7-4.67-4.7zm0 6.73c-1.12 0-2.03-.9-2.03-2.02 0-1.13.9-2.03 2.03-2.03 1.12 0 2.04.9 2.04 2.04 0 1.13-.92 2.03-2.04 2.03zM-1325.2-260.8h11.2v3.2h-11.2v-3.2zM-1307.6-260.8h8v3.2h-8v-3.2zM-1325.2-252.8h20.8v3.2h-20.8v-3.2z" stroke="#fff" stroke-opacity="0" fill="#fff"/><use xlink:href="#n" transform="matrix(1,0,0,1,-1420,-191) translate(20.875 14.4)"/><use xlink:href="#I" transform="matrix(1,0,0,1,-1420,-191) translate(66.175 14.4)"/><use xlink:href="#J" transform="matrix(1,0,0,1,-1420,-191) translate(129.125 14.4)"/><use xlink:href="#K" transform="matrix(1,0,0,1,-1420,-191) translate(6.049999999999997 36)"/><use xlink:href="#L" transform="matrix(1,0,0,1,-1420,-191) translate(69.05 36)"/><use xlink:href="#M" transform="matrix(1,0,0,1,-1420,-191) translate(13.150000000000006 57.6)"/><use xlink:href="#N" transform="matrix(1,0,0,1,-1420,-191) translate(62.00000000000001 57.6)"/><use xlink:href="#O" transform="matrix(1,0,0,1,-1420,-191) translate(87.95 57.6)"/><use xlink:href="#P" transform="matrix(1,0,0,1,-1420,-191) translate(10.049999999999997 79.20000000000002)"/><use xlink:href="#Q" transform="matrix(1,0,0,1,-1420,-191) translate(71.05 79.20000000000002)"/><use xlink:href="#R" transform="matrix(1,0,0,1,-1420,-191) translate(91.05 79.20000000000002)"/><path d="M-1390-640h120v120h-120v-120z" stroke="#fff" stroke-opacity="0" fill="#cc2264"/><path d="M-1339.62-563.2h-17.6c-1.84-.05-3.44-.53-5.04-1.48-5.04-3.12-7.84-8.3-7.76-14.27-.32-6.8 3.92-12.73 10.4-14.63v-1.27c.24-8.5 4.8-15.7 12.56-19.34 8.24-3.63 17.37-1.84 23.6 4.7 2.17 2.18 3.6 4.3 4.8 7.04 1.77-1.37 3.7-2.06 5.93-2.06 4.32 0 9.28 3.28 10.16 10.52 4.08 1 12.56 4.33 12.56 15.2.23 5.72-2.57 10.74-7.6 13.43l-1.6-2.8c4-2.16 6.15-6.13 5.9-10.62 0-9.4-7.75-11.72-11.2-12.3-.4-.1-.8-.3-1.03-.68-.24-.32-.32-.75-.24-1.17-.48-5.8-3.84-8.4-7.04-8.4-2.17.05-3.93 1-5.2 2.75-.33.47-.9.7-1.53.63-.56-.1-1.04-.47-1.28-1.05-1.05-3.23-2.65-5.76-4.98-8.2-5.36-5.5-13.04-7.02-20.08-3.96-6.4 3.12-10.32 9.14-10.56 16.28 0 .8.08 1.48.16 2.22.08.84-.48 1.63-1.28 1.8-5.68 1.15-9.6 6.17-9.28 11.93-.16 4.87 2.16 9.04 6.32 11.52 1.04.7 2.08 1 3.28 1h17.6z" stroke="#fff" stroke-opacity="0" fill="#fff"/><path d="M-1291.77-553.6l-11.38-11.4c2.18-4.86 2.05-9.9-.37-14.64-4.28-8.35-14.53-11.68-22.86-7.37-8.33 4.26-11.66 14.5-7.38 22.8 4.28 8.35 14.48 11.67 22.86 7.4l11.2 11.18c1.1 1.13 2.42 1.62 3.97 1.62 1.55 0 2.9-.5 4-1.62h.05c2.14-2.24 2.14-5.8-.1-8zm-26.87-4.54c-7.6 0-13.75-6.15-13.75-13.74 0-7.6 6.16-13.74 13.76-13.74s13.76 6.15 13.76 13.74c0 7.6-6.15 13.74-13.76 13.74zm24.64 10.24c-.96.9-2.5.9-3.46 0l-10.66-10.7c1.37-1.07 2.4-2.14 3.42-3.58l10.7 10.82c.95.94.95 2.47 0 3.46z" stroke="#fff" stroke-opacity="0" fill="#fff"/><path d="M-1314.24-579.3l-1.9 2.56c-1.2-.88-2.53-1.2-4-1-2.94.43-4.98 3.18-4.54 6.12.2 1.5.9 2.73 2.13 3.62l-1.85 2.5c-3.76-2.9-4.47-8.3-1.57-12.05 2.82-3.67 8.02-4.46 11.8-1.76z" stroke="#fff" stroke-opacity="0" fill="#fff"/><use xlink:href="#y" transform="matrix(1,0,0,1,-1420,-511) translate(5.924999999999997 14.4)"/><use xlink:href="#S" transform="matrix(1,0,0,1,-1420,-511) translate(76.875 14.4)"/><use xlink:href="#N" transform="matrix(1,0,0,1,-1420,-511) translate(17.625 36)"/><use xlink:href="#T" transform="matrix(1,0,0,1,-1420,-511) translate(43.575 36)"/><use xlink:href="#J" transform="matrix(1,0,0,1,-1420,-511) translate(132.375 36)"/><use xlink:href="#U" transform="matrix(1,0,0,1,-1420,-511) translate(61.05 57.6)"/><path d="M-1155.75 28.87h-1.46m-1.97 0h-2.93m-1.96 0h-2.93m-1.95 0h-2.94m-1.94 0h-2.94m-1.95 0h-2.94m-1.95 0h-2.94m-1.96 0h-2.93m-1.96 0h-2.94m-1.96 0h-2.93m-1.96 0h-2.92m-1.96 0h-2.93m-1.97 0H-1215.9m-1.96 0h-2.94m-1.95 0h-2.93m-1.96 0h-2.94m-1.95 0h-2.94m-1.95 0h-2.94m-1.95 0h-2.95m-1.95 0h-2.94m-1.95 0h-2.93m-1.96 0h-2.92m-1.96 0h-2.93m-1.97 0h-2.93m-1.96 0h-1.47" stroke="#3a414a" fill="none"/><path d="M-1149.86 28.87l-12.9 7.64V21.25zM-1279.02 28.87l12.9-7.63V36.5z" stroke="#3a414a" fill="#3a414a"/><path d="M-1140-1054a6 6 0 0 1 6-6h928a6 6 0 0 1 6 6v168a6 6 0 0 1-6 6h-928a6 6 0 0 1-6-6z" fill="none"/><use xlink:href="#V" transform="matrix(1,0,0,1,-1140,-1060) translate(155.72839506172846 97.11111111111111)"/><use xlink:href="#W" transform="matrix(1,0,0,1,-1140,-1060) translate(335.28395061728395 97.11111111111111)"/><use xlink:href="#X" transform="matrix(1,0,0,1,-1140,-1060) translate(414 97.11111111111111)"/><use xlink:href="#Y" transform="matrix(1,0,0,1,-1140,-1060) translate(504.66666666666663 97.11111111111111)"/><path d="M-1200-220c-22.08 0-40-17.92-40-40s17.92-40 40-40 40 17.92 40 40-17.92 40-40 40zm0-76.56c-20.24 0-36.56 16.32-36.56 36.56 0 20.24 16.32 36.56 36.56 36.56 20.24 0 36.56-16.32 36.56-36.56 0-20.24-16.32-36.56-36.56-36.56z" stroke="#fff" stroke-opacity="0" fill="#693cc5"/><path d="M-1180.86-235.97h-6.38c-.96 0-1.7-.75-1.7-1.7v-33c-3.47-1.8-6.76-2.6-10.64-2.7-4.26.1-7.8 1.04-11.55 3.07v32.63c0 .95-.75 1.7-1.67 1.7h-6.34c-.96 0-1.7-.75-1.7-1.7v-37.12c0-.5.2-.93.57-1.26 6.1-5 12.85-7.32 20.7-7.13 7.4-.14 13.8 1.94 19.75 6.33.46.33.67.8.67 1.33v37.87c0 .95-.75 1.7-1.7 1.7zm-4.67-3.4h2.96v-35.32c-5.2-3.58-10.67-5.2-17-5.1-6.73-.18-12.52 1.7-17.86 5.77v34.66h2.92v-32.02c0-.65.32-1.22.9-1.5 4.5-2.55 8.85-3.78 14.02-3.87 4.7.14 8.7 1.18 12.88 3.4h.17c.63.28 1 .85 1 1.56z" stroke="#fff" stroke-opacity="0" fill="#693cc5"/><g><use xlink:href="#Z" transform="matrix(1,0,0,1,-1270,-211) translate(3.549999999999997 14.4)"/><use xlink:href="#aa" transform="matrix(1,0,0,1,-1270,-211) translate(69.5 14.4)"/></g><path d="M-1150.98-502.07v-9.45l-2.54 1.2v-1.2l2.68-1.5h1.46v11zM-1144.73-502.08l3.6-9.7h-4.88v-1.32h6.48v1.2l-3.54 9.82zM-1137.28-512.27c.48-.35.93-.6 1.5-.78.48-.14.93-.2 1.45-.16.78-.07 1.48.2 2.02.76.54.62.78 1.34.73 2.16 0 .54-.1 1-.3 1.5-.33.72-.67 1.3-1.14 1.93-.55.77-1.47 1.96-2.78 3.53h4.6v1.33h-6.35v-1.18c1.14-1.4 2-2.53 2.62-3.4.5-.7.9-1.33 1.28-2.13.27-.5.4-1 .4-1.58 0-1.1-.47-1.7-1.36-1.7-1.02.1-1.86.42-2.68 1zM-1128.4-501.92c-.27 0-.52-.08-.72-.27-.2-.2-.3-.45-.3-.74 0-.55.4-1 .96-1.02h.07c.3 0 .54.08.74.3.2.2.3.44.3.72 0 .3-.1.54-.3.75-.2.2-.45.3-.73.28zM-1122.43-502.07v-9.45l-2.54 1.2v-1.2l2.67-1.5h1.47v11zM-1113.35-512.05c-.74-.04-1.4.3-1.78.95-.5.97-.7 1.9-.7 2.97.72-.44 1.42-.64 2.25-.64.84-.03 1.57.3 2.1.94.56.7.82 1.47.77 2.37.04.98-.25 1.86-.9 2.62-.63.68-1.44 1-2.38.96-1.07.1-2.04-.4-2.6-1.3-.7-1.3-.97-2.58-.87-4.06-.1-1.63.23-3.05 1.03-4.48.63-1 1.67-1.56 2.87-1.5.42 0 .77.05 1.18.16.37.08.67.2 1.02.37v1.18c-.33-.15-.62-.25-.97-.33-.36-.1-.66-.16-1.03-.2zm-.67 4.55c-.67 0-1.23.15-1.8.46v.1c-.07 1.04.06 1.93.43 2.9.26.57.8.93 1.45.92 1.06 0 1.6-.75 1.6-2.24.04-.6-.1-1.1-.43-1.58-.3-.4-.75-.6-1.24-.56zM-1108.1-501.93c-.27.02-.52-.07-.72-.26-.2-.2-.3-.45-.3-.74 0-.56.47-1.02 1.03-1.02.58 0 1.03.46 1.03 1.02.02.3-.08.54-.28.75-.2.2-.45.3-.74.27zM-1102.04-501.87c-1.12.06-2.1-.5-2.64-1.46-.7-1.38-1-2.72-.9-4.26-.1-1.54.18-2.86.9-4.25.57-.93 1.54-1.43 2.64-1.36 1.1-.06 2.05.5 2.6 1.44.7 1.38.98 2.7.9 4.26.08 1.54-.2 2.87-.9 4.26-.57.93-1.52 1.43-2.6 1.37zm0-1.3c.66 0 1.2-.4 1.4-1.05.37-1.15.5-2.18.44-3.38.07-1.22-.07-2.25-.45-3.4-.14-.5-.5-.84-1-1-.76-.2-1.58.23-1.8 1-.38 1.16-.5 2.18-.45 3.4-.06 1.2.07 2.23.45 3.38.18.65.74 1.06 1.4 1.06zM-1096.02-501.93c-.28.02-.53-.07-.73-.26-.2-.2-.3-.45-.3-.74 0-.56.47-1.02 1.03-1.02.57 0 1.02.46 1.02 1.02.02.3-.08.54-.3.75-.2.2-.43.3-.72.27zM-1089.98-501.87c-1.1.05-2.06-.5-2.6-1.46-.7-1.38-1-2.72-.9-4.26-.1-1.53.2-2.86.9-4.25.57-.92 1.52-1.42 2.6-1.37 1.1-.04 2.06.5 2.6 1.46.7 1.38 1 2.72.9 4.26.1 1.55-.2 2.87-.9 4.26-.56.93-1.5 1.43-2.6 1.37zm0-1.3c.66 0 1.22-.4 1.4-1.05.38-1.14.52-2.18.45-3.38.07-1.22-.07-2.25-.45-3.4-.14-.48-.5-.84-1-.98-.77-.23-1.58.2-1.8.98-.37 1.15-.5 2.18-.45 3.4-.07 1.2.07 2.24.44 3.38.2.64.76 1.06 1.42 1.06zM-1150.98-476.03v-9.4l-2.54 1.2v-1.3l2.68-1.5h1.46v11zM-1144.73-476.03l3.6-9.7h-4.88v-1.3h6.48v1.16l-3.54 9.84zM-1137.28-486.22c.5-.35.93-.58 1.5-.78.48-.18.92-.25 1.45-.23.78-.06 1.47.2 2.02.75.52.6.76 1.3.73 2.1 0 .53-.1 1-.3 1.5-.32.72-.66 1.3-1.14 1.93-.55.76-1.47 1.95-2.78 3.55h4.6v1.3h-6.35v-1.18c1.14-1.42 2-2.53 2.62-3.4.5-.67.9-1.27 1.28-2.02.27-.5.4-1 .4-1.56 0-1.1-.47-1.7-1.36-1.7-1.02.1-1.86.42-2.68 1.02zM-1128.4-475.9c-.54 0-1-.42-1-.96v-.07c-.02-.3.07-.54.28-.75.2-.2.45-.28.73-.27.3-.02.54.07.74.27.2.2.3.46.3.75 0 .28-.1.53-.3.73-.2.2-.45.3-.73.3zM-1122.43-476.03v-9.4l-2.54 1.2v-1.3l2.67-1.5h1.47v11zM-1113.35-486c-.74-.03-1.4.3-1.78.95-.5.98-.7 1.9-.68 3.02.7-.45 1.4-.65 2.22-.66.8-.04 1.53.27 2.06.9.58.68.83 1.46.78 2.36.05 1-.24 1.86-.88 2.6-.64.7-1.45 1.04-2.4 1-1.06.07-2-.4-2.58-1.3-.68-1.3-.95-2.56-.85-4.04-.1-1.64.23-3.06 1.03-4.5.6-1.04 1.65-1.6 2.85-1.56.42 0 .78.03 1.18.13.38.1.7.2 1.03.37v1.16c-.33-.14-.62-.24-.97-.3-.35-.08-.65-.12-1-.12zm-.68 4.56c-.66 0-1.2.15-1.8.44v.13c-.05 1.04.08 1.92.44 2.9.26.57.8.92 1.44.9 1.07 0 1.6-.74 1.6-2.25.04-.6-.1-1.1-.42-1.58-.32-.38-.75-.57-1.25-.54zM-1108.1-475.9c-.53 0-1-.42-1-.96v-.07c-.02-.3.08-.54.28-.75.43-.36 1.04-.36 1.47 0 .2.2.3.46.3.75 0 .54-.42 1-.97 1.02h-.07zM-1102.13-476.03v-9.4l-2.55 1.2v-1.3l2.67-1.5h1.45v11zM-1096.02-475.9c-.54 0-1-.42-1.02-.96v-.07c0-.3.1-.54.3-.75.42-.36 1.03-.36 1.45 0 .22.2.32.46.3.75.02.54-.4 1-.95 1.02h-.07zM-1089.98-475.8c-1.1.03-2.06-.52-2.6-1.48-.7-1.4-1-2.7-.9-4.26-.1-1.55.2-2.88.9-4.26.54-.95 1.5-1.5 2.6-1.44 1.1-.05 2.06.5 2.6 1.44.7 1.38.98 2.7.9 4.26.1 1.55-.2 2.88-.9 4.27-.54.96-1.5 1.5-2.6 1.46zm0-1.3c.66 0 1.2-.42 1.4-1.05.38-1.15.52-2.2.45-3.4.07-1.2-.07-2.24-.45-3.38-.14-.5-.5-.85-1-1-.77-.2-1.58.22-1.8 1-.37 1.15-.5 2.18-.45 3.4-.06 1.2.08 2.22.44 3.38.2.64.76 1.05 1.42 1.05zM-1150.98-448.4v-9.4l-2.54 1.18v-1.3l2.68-1.5h1.46v11zM-1144.73-448.4l3.6-9.7h-4.88v-1.33h6.48v1.2l-3.54 9.82zM-1137.28-458.6c.48-.34.93-.58 1.5-.78.48-.18.92-.26 1.45-.25.78-.06 1.47.2 2.02.75.53.63.78 1.34.73 2.16 0 .55-.1 1.02-.3 1.53-.33.73-.67 1.3-1.14 1.93-.55.77-1.47 1.94-2.78 3.53h4.6v1.33h-6.35v-1.2c1.14-1.43 2-2.54 2.62-3.4.5-.67.9-1.28 1.28-2.04.26-.5.38-1 .4-1.58 0-1.1-.47-1.7-1.36-1.7-1.02.1-1.86.42-2.68 1.03zM-1128.4-448.26c-.27.02-.52-.07-.72-.27-.2-.2-.3-.46-.3-.74 0-.55.4-1 .96-1.02h.07c.3 0 .54.1.74.3.2.2.3.44.3.73 0 .28-.1.53-.3.74-.2.2-.45.3-.73.27zM-1122.43-448.4v-9.4l-2.54 1.18v-1.3l2.67-1.5h1.47v11zM-1113.35-458.38c-.74-.03-1.4.3-1.78.95-.5.98-.7 1.92-.68 3.02.7-.44 1.4-.65 2.22-.66.8-.02 1.52.27 2.06.9.57.68.83 1.47.78 2.36.05 1-.24 1.86-.88 2.63-.64.67-1.46 1-2.4.96-1.06.07-2-.4-2.58-1.3-.68-1.32-.95-2.6-.85-4.06-.1-1.65.23-3.07 1.03-4.5.6-1.05 1.65-1.6 2.85-1.58.42 0 .77.05 1.18.14.38.1.7.22 1.03.4v1.15c-.34-.14-.62-.23-.97-.3-.35-.1-.65-.13-1-.13zm-.68 4.5c-.66.02-1.2.16-1.8.45v.14c-.06 1.04.08 1.92.44 2.9.26.56.8.92 1.44.9 1.08 0 1.6-.75 1.6-2.23.05-.6-.1-1.1-.42-1.58-.3-.4-.75-.6-1.25-.57zM-1108.1-448.26c-.27.02-.52-.07-.72-.27-.2-.2-.3-.46-.3-.74 0-.57.47-1.02 1.03-1.02.58 0 1.04.46 1.04 1.03 0 .28-.1.53-.3.74-.2.2-.44.3-.73.27zM-1104.9-458.6c.48-.34.92-.58 1.48-.78.5-.18.94-.26 1.47-.25.78-.06 1.47.2 2.02.75.53.63.78 1.34.73 2.16 0 .55-.1 1.02-.3 1.53-.32.73-.66 1.3-1.13 1.93-.54.77-1.46 1.94-2.78 3.53h4.6v1.33h-6.36v-1.2c1.14-1.43 2-2.54 2.63-3.4.5-.67.87-1.28 1.26-2.04.26-.5.38-1 .38-1.58 0-1.1-.44-1.7-1.35-1.7-1 .1-1.85.42-2.67 1.03zM-1096.02-448.26c-.28.02-.53-.07-.73-.27-.2-.2-.3-.46-.3-.74 0-.57.47-1.02 1.03-1.02.57 0 1.03.46 1.03 1.03.02.28-.08.53-.3.74-.2.2-.43.3-.72.27zM-1089.98-448.2c-1.1.03-2.06-.5-2.6-1.46-.7-1.37-.98-2.7-.9-4.2-.1-1.56.2-2.9.9-4.27.54-.95 1.5-1.5 2.6-1.46 1.1-.02 2.06.52 2.6 1.47.7 1.38 1 2.7.9 4.26.1 1.55-.2 2.88-.9 4.26-.56.93-1.5 1.44-2.6 1.4zm0-1.3c.66 0 1.22-.4 1.4-1.05.38-1.15.52-2.18.45-3.4.07-1.2-.07-2.23-.45-3.38-.14-.5-.5-.84-1-.98-.77-.24-1.58.2-1.8.97-.38 1.15-.5 2.18-.45 3.4-.07 1.2.08 2.23.44 3.38.2.64.76 1.06 1.42 1.06z" stroke="#fff" stroke-opacity="0" fill="#693cc5"/><path d="M-1081.68-496h-76.64c-.88 0-1.68-.76-1.68-1.7v-20.6c0-.93.8-1.7 1.68-1.7h76.64c.88 0 1.68.77 1.68 1.7v20.6c0 .94-.8 1.7-1.68 1.7zm-74.88-3.38h73.12v-17.24h-73.12zM-1081.68-468.98h-76.64c-.88 0-1.68-.77-1.68-1.7v-20.63c0-.95.8-1.72 1.68-1.72h76.64c.88 0 1.68.77 1.68 1.7v20.63c0 .95-.8 1.72-1.68 1.72zm-74.88-3.4h73.12v-17.25h-73.12zM-1081.68-442h-76.64c-.88 0-1.68-.77-1.68-1.7v-20.6c0-.94.8-1.7 1.68-1.7h76.64c.88 0 1.68.76 1.68 1.7v20.6c0 .93-.8 1.7-1.68 1.7zm-74.88-3.38h73.12v-17.25h-73.12z" stroke="#fff" stroke-opacity="0" fill="#693cc5"/><path d="M-1158.18-517.8h76.4v73.8h-76.4v-73.8z" stroke="#fff" stroke-opacity="0" stroke-width=".4" fill="#fff" fill-opacity="0"/><g><use xlink:href="#ab" transform="matrix(1,0,0,1,-1190,-433) translate(24.049999999999997 14.4)"/><use xlink:href="#ac" transform="matrix(1,0,0,1,-1190,-433) translate(77 14.4)"/></g><path d="M-1120-441.5v1.5m0 2v3.02m0 2v3m0 2.02v3m0 2v3.02m0 2v3.02m0 2v3m0 2.02v3m0 2v3.02m0 2v3m0 2.02v3m0 2v3.02m0 2v3.02m0 2v3m0 2.02v3m0 2v3.02m0 2v3m0 2.02v3m0 2v3.02m0 2v3.02m0 2v3m0 2.02v3m0 2v3.02m0 2v3m0 2.02v3m0 2v3.02m0 2v3.02m0 2v3m0 2.02v3m0 2v3.02m0 2v3m0 2.02v3m0 2v3.02m0 2v3.02m0 2v3m0 2.02v1.5l-.07.94-.1.46m-.73 1.73l-.25.4-.6.7-.72.62-.4.25m-1.73.72l-.46.1-.94.08h-1.63m-2.17 0h-3.25m-2.17 0h-3.26m-2.17 0h-3.25m-2.17 0h-3.26m-2.17 0h-1.63" stroke="#3a414a" fill="none"/><path d="M-1119.53-441.5h-.94v-.5h.94z" stroke="#3a414a" stroke-width=".05" fill="#3a414a"/><path d="M-1159.02-260l12.9-7.64v15.28z" stroke="#3a414a" fill="#3a414a"/><path d="M-1079.5-481h1.5m2 0h2.98m2 0h2.98m2 0h2.98m2 0h2.98m2 0h2.98m2 0h2.98m2 0h2.98m2 0h3m1.98 0h3m1.98 0h3m1.98 0h3m1.98 0h3m2 0h2.97m2 0h3m1.98 0h3m1.98 0h3m2 0h2.98m2 0h2.98m2 0h2.98m2 0h2.98m2 0h3m1.98 0h3m1.98 0h3m1.98 0h3m1.98 0h3m1.98 0h3m2 0h2.97m2 0h2.98m2 0h2.98m2 0h2.98m2 0h2.98m2 0h2.98m2 0h2.98m2 0h3m1.98 0h3m1.98 0h3m1.98 0h3m1.98 0h3m1.98 0h3m2 0h2.97m2 0h3m1.98 0h3m1.98 0h3m2 0h2.98m2 0h2.98m2 0h2.98m2 0h2.98m2 0h3m1.98 0h3m1.98 0h3m1.98 0h3m1.98 0h3m1.98 0h3m2 0h2.97m2 0h2.98m2 0h2.98m2 0h2.98m2 0h2.98m2 0h2.98m2 0h2.98m2 0h3m1.98 0h3m1.98 0h3m1.98 0h3m1.98 0h3m1.98 0h3m2 0h2.97m2 0h3m1.98 0h3m1.98 0h3m2 0h2.98m2 0h2.98m2 0h2.98m2 0h2.98m2 0h3m1.98 0h3m1.98 0h3m1.98 0h3m1.98 0h3m1.98 0h3m2 0h1.48l.94.07.46.1m1.73.73l.4.25.7.6.62.72.25.4m.72 1.73l.1.46.08.94v1.5m0 2v3m0 2v3m0 2v3m0 1.98v3m0 2v3m0 2v3m0 2v3m0 2v2.98m0 2v3m0 2v3m0 2v3m0 2v3m0 2v2.98m0 2v3m0 2v3m0 2v3m0 2v3m0 2v2.98m0 2v3m0 2v3m0 2v3m0 2v2.98m0 2v3m0 2v3m0 2v3m0 2v3m0 2v2.98m0 2v3m0 2v3m0 2v3m0 2v3m0 2v2.98m0 2v3m0 2v3m0 2v3m0 2v3m0 1.98v3m0 2v3m0 2v3m0 2v3m0 2v3m0 1.98v3m0 2v3m0 2v3m0 2v3m0 2v2.98m0 2v3m0 2v3m0 2v3m0 2v3m0 1.98v3m0 2v3m0 2v3m0 2v3m0 2v2.98m0 2v3m0 2v3m0 2v3m0 2v3m0 2v2.98m0 2v3m0 2v3m0 2v3m0 2v3m0 2v2.98m0 2v3m0 2v3m0 2v3m0 2v3m0 1.98v3m0 2v3m0 2v3m0 2v3m0 2v2.98m0 2v3m0 2v3m0 2v3m0 2v3m0 2v2.98m0 2v3m0 2v3m0 2v3m0 2v3m0 2v2.98m0 2v3m0 2v3m0 2v3m0 2v1.5" stroke="#3a414a" fill="none"/><path d="M-1079.5-480.52h-.5v-.96h.5z" stroke="#3a414a" stroke-width=".05" fill="#3a414a"/><path d="M-670-29.48l-7.64-12.9h15.28z" stroke="#3a414a" fill="#3a414a"/><path d="M-1120-520.5v-1.44m0-1.9v-2.88m0-1.92v-2.87m0-1.92v-2.87m0-1.9v-2.88m0-1.9v-2.88m0-1.92v-2.87m0-1.9V-554l.07-.94.1-.46m.73-1.73l.25-.4.6-.7.72-.62.4-.25m1.73-.72l.46-.1.94-.08h1.5m2 0h3m1.98 0h3m2 0h3m2 0h2.98m2 0h3m2 0h2.98m2 0h3m2 0h2.98m2 0h3m2 0h3m1.98 0h3m2 0h3m1.98 0h3m2 0h3m2 0h2.98m2 0h3m2 0h2.98m2 0h3m2 0h3m1.98 0h3m2 0h3m1.98 0h3m2 0h3m2 0h2.98m2 0h3m2 0h2.98m2 0h3m2 0h2.98m2 0h3m2 0h3m1.98 0h3m2 0h3m1.98 0h3m2 0h3m1.98 0h3m2 0h3m2 0h2.98m2 0h3m2 0h2.98m2 0h3m2 0h3m1.98 0h3m2 0h3m1.98 0h3m2 0h3m2 0h2.98m2 0h3m2 0h2.98m2 0h3m2 0h2.98m2 0h3m2 0h3m1.98 0h3m2 0h3m1.98 0h3m2 0h3m2 0h2.98m2 0h3m2 0h2.98m2 0h3m2 0h2.98m2 0h3m2 0h2.98m2 0h3m2 0h3m1.98 0h3m2 0h3m2 0h2.98m2 0h3m2 0h2.98m2 0h3m2 0h2.98m2 0h3m2 0h3m1.98 0h3m2 0h3m1.98 0h3m2 0h3m2 0h2.98m2 0h3m2 0h2.98m2 0h3m2 0h2.98m2 0h3m2 0h3m1.98 0h3m2 0h3m1.98 0h3m2 0h3m1.98 0h3m2 0h3m2 0h2.98m2 0h3m2 0h2.98m2 0h3m2 0h3m1.98 0h3m2 0h3m1.98 0h3m2 0h3m2 0h2.98m2 0h3m2 0h2.98m2 0h3m2 0h2.98m2 0h3m2 0h3m1.98 0h3m2 0h3m1.98 0h3m2 0h3m2 0h2.98m2 0h3m2 0h2.98m2 0h3m2 0h2.98m2 0h3m2 0h2.98m2 0h3m2 0h3m1.98 0h3m2 0h3m2 0h2.98m2 0h3m2 0h2.98m2 0h3m2 0h2.98m2 0h3m2 0h3m1.98 0h3m2 0h3m1.98 0h3m2 0h3m2 0h2.98m2 0h3m2 0h2.98m2 0h3m2 0h2.98m2 0h3m2 0h3m1.98 0h3m2 0h3m1.98 0h3m2 0h3m2 0h2.98m2 0h3m2 0h2.98m2 0h3m2 0h2.98m2 0h3m2 0h3m1.98 0h3m2 0h3m1.98 0h3m2 0h3m1.98 0h3m2 0h3m2 0h2.98m2 0h3m2 0h2.98m2 0h3m2 0h2.98m2 0h3m2 0h3m1.98 0h3m2 0h3m2 0h2.98m2 0h3m2 0h2.98m2 0h3m2 0h2.98m2 0h3m2 0h3m1.98 0h3m2 0h3m1.98 0h3m2 0h3m1.98 0h3m2 0h3m2 0h2.98m2 0h3m2 0h2.98m2 0h3m2 0h2.98m2 0h3m2 0h3m1.98 0h3m2 0h3m1.98 0h3m2 0h3m2 0h2.98m2 0h3m2 0h2.98m2 0h3m2 0h2.98m2 0h3m2 0h3m1.98 0h3m2 0h3m1.98 0h3m2 0h3m2 0h2.98m2 0h3m2 0h2.98m2 0h3m2 0h2.98m2 0h3m2 0h3m1.98 0h3m2 0h3m2 0h2.98m2 0h3m2 0h2.98m2 0h3m2 0h2.98m2 0h3m2 0h2.98m2 0h3m2 0h3m1.98 0h1.5l.94.07.46.1m1.72.73l.4.25.72.6.6.72.26.4m.72 1.73l.1.46.08.94v1.5m0 2v2.98m0 2v3m0 1.98v3m0 2v2.98m0 2v3m0 1.98v3m0 2v2.98m0 2v3m0 2v2.98m0 2v2.98m0 2v3m0 2v2.98m0 2v2.98m0 2v3m0 2v2.98m0 2v3m0 1.98v3m0 2v2.98m0 2v3m0 1.98v3m0 2v2.98m0 2v3m0 1.98v3m0 2v2.98m0 2v3m0 1.98v3m0 2v2.98m0 2v3m0 1.98v3m0 2v2.98m0 2v3m0 1.98v3m0 2v2.98m0 2v3m0 1.98v3m0 2v2.98m0 2v3m0 1.98v3m0 2v2.98m0 2v3m0 1.98v3m0 2v2.98m0 2v3m0 1.98v3m0 2v2.98m0 2v3m0 1.98v3m0 2v2.98m0 2v3m0 1.98v3m0 2v2.98m0 2v3m0 1.98v3m0 2v2.98m0 2v3m0 2v2.98m0 2v2.98m0 2v3m0 2v2.98m0 2v2.98m0 2v3m0 2v2.98m0 2v2.98m0 2v3m0 2v2.98m0 2v3m0 1.98v3m0 2v2.98m0 2v3m0 1.98v3m0 2v2.98m0 2v2.98m0 2v3m0 2v2.98m0 2v3m0 1.98v3m0 2v2.98m0 2v3m0 1.98v3m0 2v2.98m0 2v3m0 1.98v3m0 2v2.98m0 2v3m0 1.98v3m0 2v2.98m0 2v3m0 1.98v3m0 2v2.98m0 2v3m0 1.98v3m0 2v2.98m0 2v3m0 1.98v3m0 2v2.98m0 2v3m0 1.98v3m0 2v2.98m0 2v3m0 1.98v3m0 2v2.98m0 2v3m0 1.98v3m0 2v1.5" stroke="#3a414a" fill="none"/><path d="M-1119.53-520h-.94v-.5h.94z" stroke="#3a414a" stroke-width=".05" fill="#3a414a"/><path d="M-10-29.48l-7.64-12.9h15.28z" stroke="#3a414a" fill="#3a414a"/><defs><path fill="#232f3e" d="M205 0l-28-72H64L36 0H1l101-248h38L239 0h-34zm-38-99l-47-123c-12 45-31 82-46 123h93" id="ad"/><path fill="#232f3e" d="M266 0h-40l-56-210L115 0H75L2-248h35L96-30l15-64 43-154h32l59 218 59-218h35" id="ae"/><path fill="#232f3e" d="M185-189c-5-48-123-54-124 2 14 75 158 14 163 119 3 78-121 87-175 55-17-10-28-26-33-46l33-7c5 56 141 63 141-1 0-78-155-14-162-118-5-82 145-84 179-34 5 7 8 16 11 25" id="af"/><g id="a"><use transform="matrix(0.05,0,0,0.05,0,0)" xlink:href="#ad"/><use transform="matrix(0.05,0,0,0.05,11.35,0)" xlink:href="#ae"/><use transform="matrix(0.05,0,0,0.05,28.299999999999997,0)" xlink:href="#af"/></g><path fill="#232f3e" d="M212-179c-10-28-35-45-73-45-59 0-87 40-87 99 0 60 29 101 89 101 43 0 62-24 78-52l27 14C228-24 195 4 139 4 59 4 22-46 18-125c-6-104 99-153 187-111 19 9 31 26 39 46" id="ag"/><path fill="#232f3e" d="M24 0v-261h32V0H24" id="ah"/><path fill="#232f3e" d="M100-194c62-1 85 37 85 99 1 63-27 99-86 99S16-35 15-95c0-66 28-99 85-99zM99-20c44 1 53-31 53-75 0-43-8-75-51-75s-53 32-53 75 10 74 51 75" id="ai"/><path fill="#232f3e" d="M84 4C-5 8 30-112 23-190h32v120c0 31 7 50 39 49 72-2 45-101 50-169h31l1 190h-30c-1-10 1-25-2-33-11 22-28 36-60 37" id="aj"/><path fill="#232f3e" d="M85-194c31 0 48 13 60 33l-1-100h32l1 261h-30c-2-10 0-23-3-31C134-8 116 4 85 4 32 4 16-35 15-94c0-66 23-100 70-100zm9 24c-40 0-46 34-46 75 0 40 6 74 45 74 42 0 51-32 51-76 0-42-9-74-50-73" id="ak"/><g id="b"><use transform="matrix(0.05,0,0,0.05,0,0)" xlink:href="#ag"/><use transform="matrix(0.05,0,0,0.05,12.950000000000001,0)" xlink:href="#ah"/><use transform="matrix(0.05,0,0,0.05,16.900000000000002,0)" xlink:href="#ai"/><use transform="matrix(0.05,0,0,0.05,26.900000000000002,0)" xlink:href="#aj"/><use transform="matrix(0.05,0,0,0.05,36.900000000000006,0)" xlink:href="#ak"/></g><path fill="#3a414a" d="M205 0l-28-72H64L36 0H1l101-248h38L239 0h-34zm-38-99l-47-123c-12 45-31 82-46 123h93" id="al"/><path fill="#3a414a" d="M108 0H70L1-190h34L89-25l56-165h34" id="am"/><path fill="#3a414a" d="M141-36C126-15 110 5 73 4 37 3 15-17 15-53c-1-64 63-63 125-63 3-35-9-54-41-54-24 1-41 7-42 31l-33-3c5-37 33-52 76-52 45 0 72 20 72 64v82c-1 20 7 32 28 27v20c-31 9-61-2-59-35zM48-53c0 20 12 33 32 33 41-3 63-29 60-74-43 2-92-5-92 41" id="an"/><path fill="#3a414a" d="M24-231v-30h32v30H24zM24 0v-190h32V0H24" id="ao"/><path fill="#3a414a" d="M24 0v-261h32V0H24" id="ap"/><path fill="#3a414a" d="M115-194c53 0 69 39 70 98 0 66-23 100-70 100C84 3 66-7 56-30L54 0H23l1-261h32v101c10-23 28-34 59-34zm-8 174c40 0 45-34 45-75 0-40-5-75-45-74-42 0-51 32-51 76 0 43 10 73 51 73" id="aq"/><path fill="#3a414a" d="M59-47c-2 24 18 29 38 22v24C64 9 27 4 27-40v-127H5v-23h24l9-43h21v43h35v23H59v120" id="ar"/><path fill="#3a414a" d="M179-190L93 31C79 59 56 82 12 73V49c39 6 53-20 64-50L1-190h34L92-34l54-156h33" id="as"/><g id="c"><use transform="matrix(0.06172839506172839,0,0,0.06172839506172839,0,0)" xlink:href="#al"/><use transform="matrix(0.06172839506172839,0,0,0.06172839506172839,14.382716049382715,0)" xlink:href="#am"/><use transform="matrix(0.06172839506172839,0,0,0.06172839506172839,25.493827160493826,0)" xlink:href="#an"/><use transform="matrix(0.06172839506172839,0,0,0.06172839506172839,37.839506172839506,0)" xlink:href="#ao"/><use transform="matrix(0.06172839506172839,0,0,0.06172839506172839,42.71604938271605,0)" xlink:href="#ap"/><use transform="matrix(0.06172839506172839,0,0,0.06172839506172839,47.592592592592595,0)" xlink:href="#an"/><use transform="matrix(0.06172839506172839,0,0,0.06172839506172839,59.93827160493827,0)" xlink:href="#aq"/><use transform="matrix(0.06172839506172839,0,0,0.06172839506172839,72.28395061728395,0)" xlink:href="#ao"/><use transform="matrix(0.06172839506172839,0,0,0.06172839506172839,77.1604938271605,0)" xlink:href="#ap"/><use transform="matrix(0.06172839506172839,0,0,0.06172839506172839,82.03703703703704,0)" xlink:href="#ar"/><use transform="matrix(0.06172839506172839,0,0,0.06172839506172839,88.20987654320987,0)" xlink:href="#as"/></g><path fill="#3a414a" d="M9 0v-24l116-142H16v-24h144v24L44-24h123V0H9" id="at"/><path fill="#3a414a" d="M100-194c62-1 85 37 85 99 1 63-27 99-86 99S16-35 15-95c0-66 28-99 85-99zM99-20c44 1 53-31 53-75 0-43-8-75-51-75s-53 32-53 75 10 74 51 75" id="au"/><path fill="#3a414a" d="M117-194c89-4 53 116 60 194h-32v-121c0-31-8-49-39-48C34-167 62-67 57 0H25l-1-190h30c1 10-1 24 2 32 11-22 29-35 61-36" id="av"/><path fill="#3a414a" d="M100-194c63 0 86 42 84 106H49c0 40 14 67 53 68 26 1 43-12 49-29l28 8c-11 28-37 45-77 45C44 4 14-33 15-96c1-61 26-98 85-98zm52 81c6-60-76-77-97-28-3 7-6 17-6 28h103" id="aw"/><g id="d"><use transform="matrix(0.06172839506172839,0,0,0.06172839506172839,0,0)" xlink:href="#at"/><use transform="matrix(0.06172839506172839,0,0,0.06172839506172839,11.11111111111111,0)" xlink:href="#au"/><use transform="matrix(0.06172839506172839,0,0,0.06172839506172839,23.45679012345679,0)" xlink:href="#av"/><use transform="matrix(0.06172839506172839,0,0,0.06172839506172839,35.80246913580247,0)" xlink:href="#aw"/></g><path fill="#3a414a" d="M27 0v-27h64v-190l-56 39v-29l58-41h29v221h61V0H27" id="ax"/><use transform="matrix(0.06172839506172839,0,0,0.06172839506172839,0,0)" xlink:href="#ax" id="e"/><g id="f"><use transform="matrix(0.06172839506172839,0,0,0.06172839506172839,0,0)" xlink:href="#al"/><use transform="matrix(0.06172839506172839,0,0,0.06172839506172839,14.382716049382715,0)" xlink:href="#am"/><use transform="matrix(0.06172839506172839,0,0,0.06172839506172839,25.493827160493826,0)" xlink:href="#an"/><use transform="matrix(0.06172839506172839,0,0,0.06172839506172839,37.839506172839506,0)" xlink:href="#ao"/><use transform="matrix(0.06172839506172839,0,0,0.06172839506172839,42.71604938271605,0)" xlink:href="#ap"/><use transform="matrix(0.06172839506172839,0,0,0.06172839506172839,47.592592592592595,0)" xlink:href="#an"/><use transform="matrix(0.06172839506172839,0,0,0.06172839506172839,59.93827160493827,0)" xlink:href="#aq"/><use transform="matrix(0.06172839506172839,0,0,0.06172839506172839,72.28395061728395,0)" xlink:href="#ao"/><use transform="matrix(0.06172839506172839,0,0,0.06172839506172839,77.1604938271605,0)" xlink:href="#ap"/><use transform="matrix(0.06172839506172839,0,0,0.06172839506172839,82.03703703703704,0)" xlink:href="#ao"/><use transform="matrix(0.06172839506172839,0,0,0.06172839506172839,86.91358024691358,0)" xlink:href="#ar"/><use transform="matrix(0.06172839506172839,0,0,0.06172839506172839,93.08641975308642,0)" xlink:href="#as"/></g><path fill="#3a414a" d="M101-251c82-7 93 87 43 132L82-64C71-53 59-42 53-27h129V0H18c2-99 128-94 128-182 0-28-16-43-45-43s-46 15-49 41l-32-3c6-41 34-60 81-64" id="ay"/><use transform="matrix(0.06172839506172839,0,0,0.06172839506172839,0,0)" xlink:href="#ay" id="g"/><path d="M137 0h-34L2-248h35l83 218 83-218h36" id="az"/><path d="M30-248c87 1 191-15 191 75 0 78-77 80-158 76V0H30v-248zm33 125c57 0 124 11 124-50 0-59-68-47-124-48v98" id="aA"/><path d="M212-179c-10-28-35-45-73-45-59 0-87 40-87 99 0 60 29 101 89 101 43 0 62-24 78-52l27 14C228-24 195 4 139 4 59 4 22-46 18-125c-6-104 99-153 187-111 19 9 31 26 39 46" id="aB"/><g id="h"><use transform="matrix(0.05,0,0,0.05,0,0)" xlink:href="#az"/><use transform="matrix(0.05,0,0,0.05,12,0)" xlink:href="#aA"/><use transform="matrix(0.05,0,0,0.05,24,0)" xlink:href="#aB"/></g><path d="M84 4C-5 8 30-112 23-190h32v120c0 31 7 50 39 49 72-2 45-101 50-169h31l1 190h-30c-1-10 1-25-2-33-11 22-28 36-60 37" id="aC"/><path d="M115-194c53 0 69 39 70 98 0 66-23 100-70 100C84 3 66-7 56-30L54 0H23l1-261h32v101c10-23 28-34 59-34zm-8 174c40 0 45-34 45-75 0-40-5-75-45-74-42 0-51 32-51 76 0 43 10 73 51 73" id="aD"/><path d="M24 0v-261h32V0H24" id="aE"/><path d="M24-231v-30h32v30H24zM24 0v-190h32V0H24" id="aF"/><path d="M96-169c-40 0-48 33-48 73s9 75 48 75c24 0 41-14 43-38l32 2c-6 37-31 61-74 61-59 0-76-41-82-99-10-93 101-131 147-64 4 7 5 14 7 22l-32 3c-4-21-16-35-41-35" id="aG"/><g id="i"><use transform="matrix(0.05,0,0,0.05,0,0)" xlink:href="#aA"/><use transform="matrix(0.05,0,0,0.05,12,0)" xlink:href="#aC"/><use transform="matrix(0.05,0,0,0.05,22,0)" xlink:href="#aD"/><use transform="matrix(0.05,0,0,0.05,32,0)" xlink:href="#aE"/><use transform="matrix(0.05,0,0,0.05,35.95,0)" xlink:href="#aF"/><use transform="matrix(0.05,0,0,0.05,39.900000000000006,0)" xlink:href="#aG"/></g><path d="M135-143c-3-34-86-38-87 0 15 53 115 12 119 90S17 21 10-45l28-5c4 36 97 45 98 0-10-56-113-15-118-90-4-57 82-63 122-42 12 7 21 19 24 35" id="aH"/><path d="M117-194c89-4 53 116 60 194h-32v-121c0-31-8-49-39-48C34-167 62-67 57 0H25l-1-190h30c1 10-1 24 2 32 11-22 29-35 61-36" id="aI"/><path d="M100-194c63 0 86 42 84 106H49c0 40 14 67 53 68 26 1 43-12 49-29l28 8c-11 28-37 45-77 45C44 4 14-33 15-96c1-61 26-98 85-98zm52 81c6-60-76-77-97-28-3 7-6 17-6 28h103" id="aJ"/><path d="M59-47c-2 24 18 29 38 22v24C64 9 27 4 27-40v-127H5v-23h24l9-43h21v43h35v23H59v120" id="aK"/><g id="j"><use transform="matrix(0.05,0,0,0.05,0,0)" xlink:href="#aH"/><use transform="matrix(0.05,0,0,0.05,9,0)" xlink:href="#aC"/><use transform="matrix(0.05,0,0,0.05,19,0)" xlink:href="#aD"/><use transform="matrix(0.05,0,0,0.05,29,0)" xlink:href="#aI"/><use transform="matrix(0.05,0,0,0.05,39,0)" xlink:href="#aJ"/><use transform="matrix(0.05,0,0,0.05,49,0)" xlink:href="#aK"/></g><path d="M101-251c82-7 93 87 43 132L82-64C71-53 59-42 53-27h129V0H18c2-99 128-94 128-182 0-28-16-43-45-43s-46 15-49 41l-32-3c6-41 34-60 81-64" id="aL"/><use transform="matrix(0.05,0,0,0.05,0,0)" xlink:href="#aL" id="k"/><path d="M114-163C36-179 61-72 57 0H25l-1-190h30c1 12-1 29 2 39 6-27 23-49 58-41v29" id="aM"/><path d="M108 0H70L1-190h34L89-25l56-165h34" id="aN"/><path d="M141-36C126-15 110 5 73 4 37 3 15-17 15-53c-1-64 63-63 125-63 3-35-9-54-41-54-24 1-41 7-42 31l-33-3c5-37 33-52 76-52 45 0 72 20 72 64v82c-1 20 7 32 28 27v20c-31 9-61-2-59-35zM48-53c0 20 12 33 32 33 41-3 63-29 60-74-43 2-92-5-92 41" id="aO"/><g id="l"><use transform="matrix(0.05,0,0,0.05,0,0)" xlink:href="#aA"/><use transform="matrix(0.05,0,0,0.05,12,0)" xlink:href="#aM"/><use transform="matrix(0.05,0,0,0.05,17.95,0)" xlink:href="#aF"/><use transform="matrix(0.05,0,0,0.05,21.9,0)" xlink:href="#aN"/><use transform="matrix(0.05,0,0,0.05,30.899999999999995,0)" xlink:href="#aO"/><use transform="matrix(0.05,0,0,0.05,40.9,0)" xlink:href="#aK"/><use transform="matrix(0.05,0,0,0.05,45.9,0)" xlink:href="#aJ"/></g><path d="M27 0v-27h64v-190l-56 39v-29l58-41h29v221h61V0H27" id="aP"/><use transform="matrix(0.05,0,0,0.05,0,0)" xlink:href="#aP" id="m"/><path d="M205 0l-28-72H64L36 0H1l101-248h38L239 0h-34zm-38-99l-47-123c-12 45-31 82-46 123h93" id="aQ"/><path d="M266 0h-40l-56-210L115 0H75L2-248h35L96-30l15-64 43-154h32l59 218 59-218h35" id="aR"/><path d="M185-189c-5-48-123-54-124 2 14 75 158 14 163 119 3 78-121 87-175 55-17-10-28-26-33-46l33-7c5 56 141 63 141-1 0-78-155-14-162-118-5-82 145-84 179-34 5 7 8 16 11 25" id="aS"/><g id="n"><use transform="matrix(0.05,0,0,0.05,0,0)" xlink:href="#aQ"/><use transform="matrix(0.05,0,0,0.05,11.35,0)" xlink:href="#aR"/><use transform="matrix(0.05,0,0,0.05,28.299999999999997,0)" xlink:href="#aS"/></g><path d="M210-169c-67 3-38 105-44 169h-31v-121c0-29-5-50-35-48C34-165 62-65 56 0H25l-1-190h30c1 10-1 24 2 32 10-44 99-50 107 0 11-21 27-35 58-36 85-2 47 119 55 194h-31v-121c0-29-5-49-35-48" id="aT"/><path d="M115-194c55 1 70 41 70 98S169 2 115 4C84 4 66-9 55-30l1 105H24l-1-265h31l2 30c10-21 28-34 59-34zm-8 174c40 0 45-34 45-75s-6-73-45-74c-42 0-51 32-51 76 0 43 10 73 51 73" id="aU"/><path d="M101-234c-31-9-42 10-38 44h38v23H63V0H32v-167H5v-23h27c-7-52 17-82 69-68v24" id="aV"/><path d="M179-190L93 31C79 59 56 82 12 73V49c39 6 53-20 64-50L1-190h34L92-34l54-156h33" id="aW"/><g id="o"><use transform="matrix(0.05,0,0,0.05,0,0)" xlink:href="#aQ"/><use transform="matrix(0.05,0,0,0.05,12,0)" xlink:href="#aT"/><use transform="matrix(0.05,0,0,0.05,26.950000000000003,0)" xlink:href="#aU"/><use transform="matrix(0.05,0,0,0.05,36.95,0)" xlink:href="#aE"/><use transform="matrix(0.05,0,0,0.05,40.900000000000006,0)" xlink:href="#aF"/><use transform="matrix(0.05,0,0,0.05,44.85000000000001,0)" xlink:href="#aV"/><use transform="matrix(0.05,0,0,0.05,49.85000000000001,0)" xlink:href="#aW"/></g><path d="M177-190C167-65 218 103 67 71c-23-6-38-20-44-43l32-5c15 47 100 32 89-28v-30C133-14 115 1 83 1 29 1 15-40 15-95c0-56 16-97 71-98 29-1 48 16 59 35 1-10 0-23 2-32h30zM94-22c36 0 50-32 50-73 0-42-14-75-50-75-39 0-46 34-46 75s6 73 46 73" id="aX"/><g id="p"><use transform="matrix(0.05,0,0,0.05,0,0)" xlink:href="#aH"/><use transform="matrix(0.05,0,0,0.05,9,0)" xlink:href="#aJ"/><use transform="matrix(0.05,0,0,0.05,19,0)" xlink:href="#aM"/><use transform="matrix(0.05,0,0,0.05,24.95,0)" xlink:href="#aN"/><use transform="matrix(0.05,0,0,0.05,33.95,0)" xlink:href="#aF"/><use transform="matrix(0.05,0,0,0.05,37.900000000000006,0)" xlink:href="#aI"/><use transform="matrix(0.05,0,0,0.05,47.900000000000006,0)" xlink:href="#aX"/></g><path d="M100-194c62-1 85 37 85 99 1 63-27 99-86 99S16-35 15-95c0-66 28-99 85-99zM99-20c44 1 53-31 53-75 0-43-8-75-51-75s-53 32-53 75 10 74 51 75" id="aY"/><path d="M85-194c31 0 48 13 60 33l-1-100h32l1 261h-30c-2-10 0-23-3-31C134-8 116 4 85 4 32 4 16-35 15-94c0-66 23-100 70-100zm9 24c-40 0-46 34-46 75 0 40 6 74 45 74 42 0 51-32 51-76 0-42-9-74-50-73" id="aZ"/><g id="q"><use transform="matrix(0.05,0,0,0.05,0,0)" xlink:href="#aV"/><use transform="matrix(0.05,0,0,0.05,5,0)" xlink:href="#aM"/><use transform="matrix(0.05,0,0,0.05,10.95,0)" xlink:href="#aY"/><use transform="matrix(0.05,0,0,0.05,20.95,0)" xlink:href="#aI"/><use transform="matrix(0.05,0,0,0.05,30.950000000000003,0)" xlink:href="#aK"/><use transform="matrix(0.05,0,0,0.05,35.95,0)" xlink:href="#aJ"/><use transform="matrix(0.05,0,0,0.05,45.95,0)" xlink:href="#aI"/><use transform="matrix(0.05,0,0,0.05,55.95,0)" xlink:href="#aZ"/></g><g id="r"><use transform="matrix(0.05,0,0,0.05,0,0)" xlink:href="#aO"/><use transform="matrix(0.05,0,0,0.05,10,0)" xlink:href="#aU"/><use transform="matrix(0.05,0,0,0.05,20,0)" xlink:href="#aU"/><use transform="matrix(0.05,0,0,0.05,30,0)" xlink:href="#aE"/><use transform="matrix(0.05,0,0,0.05,33.95,0)" xlink:href="#aF"/><use transform="matrix(0.05,0,0,0.05,37.900000000000006,0)" xlink:href="#aG"/><use transform="matrix(0.05,0,0,0.05,46.900000000000006,0)" xlink:href="#aO"/><use transform="matrix(0.05,0,0,0.05,56.900000000000006,0)" xlink:href="#aK"/><use transform="matrix(0.05,0,0,0.05,61.900000000000006,0)" xlink:href="#aF"/><use transform="matrix(0.05,0,0,0.05,65.85000000000001,0)" xlink:href="#aY"/><use transform="matrix(0.05,0,0,0.05,75.85000000000001,0)" xlink:href="#aI"/></g><path d="M160-131c35 5 61 23 61 61C221 17 115-2 30 0v-248c76 3 177-17 177 60 0 33-19 50-47 57zm-97-11c50-1 110 9 110-42 0-47-63-36-110-37v79zm0 115c55-2 124 14 124-45 0-56-70-42-124-44v89" id="ba"/><path d="M143 0L79-87 56-68V0H24v-261h32v163l83-92h37l-77 82L181 0h-38" id="bb"/><g id="s"><use transform="matrix(0.05,0,0,0.05,0,0)" xlink:href="#ba"/><use transform="matrix(0.05,0,0,0.05,12,0)" xlink:href="#aO"/><use transform="matrix(0.05,0,0,0.05,22,0)" xlink:href="#aG"/><use transform="matrix(0.05,0,0,0.05,31,0)" xlink:href="#bb"/><use transform="matrix(0.05,0,0,0.05,40,0)" xlink:href="#aJ"/><use transform="matrix(0.05,0,0,0.05,50,0)" xlink:href="#aI"/><use transform="matrix(0.05,0,0,0.05,60,0)" xlink:href="#aZ"/></g><path d="M30 0v-248h33v221h125V0H30" id="bc"/><g id="t"><use transform="matrix(0.05,0,0,0.05,0,0)" xlink:href="#bc"/><use transform="matrix(0.05,0,0,0.05,10,0)" xlink:href="#aO"/><use transform="matrix(0.05,0,0,0.05,20,0)" xlink:href="#aT"/><use transform="matrix(0.05,0,0,0.05,34.95,0)" xlink:href="#aD"/><use transform="matrix(0.05,0,0,0.05,44.95,0)" xlink:href="#aZ"/><use transform="matrix(0.05,0,0,0.05,54.95,0)" xlink:href="#aO"/></g><g id="u"><use transform="matrix(0.05,0,0,0.05,0,0)" xlink:href="#aV"/><use transform="matrix(0.05,0,0,0.05,5,0)" xlink:href="#aC"/><use transform="matrix(0.05,0,0,0.05,15,0)" xlink:href="#aI"/><use transform="matrix(0.05,0,0,0.05,25,0)" xlink:href="#aG"/><use transform="matrix(0.05,0,0,0.05,34,0)" xlink:href="#aK"/><use transform="matrix(0.05,0,0,0.05,39,0)" xlink:href="#aF"/><use transform="matrix(0.05,0,0,0.05,42.95,0)" xlink:href="#aY"/><use transform="matrix(0.05,0,0,0.05,52.95,0)" xlink:href="#aI"/></g><path d="M30-248c118-7 216 8 213 122C240-48 200 0 122 0H30v-248zM63-27c89 8 146-16 146-99s-60-101-146-95v194" id="bd"/><g id="v"><use transform="matrix(0.05,0,0,0.05,0,0)" xlink:href="#bd"/><use transform="matrix(0.05,0,0,0.05,12.950000000000001,0)" xlink:href="#aO"/><use transform="matrix(0.05,0,0,0.05,22.950000000000003,0)" xlink:href="#aK"/><use transform="matrix(0.05,0,0,0.05,27.950000000000003,0)" xlink:href="#aO"/><use transform="matrix(0.05,0,0,0.05,37.95,0)" xlink:href="#aD"/><use transform="matrix(0.05,0,0,0.05,47.95,0)" xlink:href="#aO"/><use transform="matrix(0.05,0,0,0.05,57.95,0)" xlink:href="#aH"/><use transform="matrix(0.05,0,0,0.05,66.95,0)" xlink:href="#aJ"/></g><path d="M9 0v-24l116-142H16v-24h144v24L44-24h123V0H9" id="be"/><g id="w"><use transform="matrix(0.05,0,0,0.05,0,0)" xlink:href="#aQ"/><use transform="matrix(0.05,0,0,0.05,12,0)" xlink:href="#aT"/><use transform="matrix(0.05,0,0,0.05,26.950000000000003,0)" xlink:href="#aO"/><use transform="matrix(0.05,0,0,0.05,36.95,0)" xlink:href="#be"/><use transform="matrix(0.05,0,0,0.05,45.95,0)" xlink:href="#aY"/><use transform="matrix(0.05,0,0,0.05,55.95,0)" xlink:href="#aI"/></g><path d="M233-177c-1 41-23 64-60 70L243 0h-38l-65-103H63V0H30v-248c88 3 205-21 203 71zM63-129c60-2 137 13 137-47 0-61-80-42-137-45v92" id="bf"/><g id="x"><use transform="matrix(0.05,0,0,0.05,0,0)" xlink:href="#bf"/><use transform="matrix(0.05,0,0,0.05,12.950000000000001,0)" xlink:href="#bd"/><use transform="matrix(0.05,0,0,0.05,25.900000000000002,0)" xlink:href="#aS"/></g><g id="y"><use transform="matrix(0.05,0,0,0.05,0,0)" xlink:href="#aQ"/><use transform="matrix(0.05,0,0,0.05,12,0)" xlink:href="#aT"/><use transform="matrix(0.05,0,0,0.05,26.950000000000003,0)" xlink:href="#aO"/><use transform="matrix(0.05,0,0,0.05,36.95,0)" xlink:href="#be"/><use transform="matrix(0.05,0,0,0.05,45.95,0)" xlink:href="#aY"/><use transform="matrix(0.05,0,0,0.05,55.95,0)" xlink:href="#aI"/></g><g id="z"><use transform="matrix(0.05,0,0,0.05,0,0)" xlink:href="#az"/><use transform="matrix(0.05,0,0,0.05,12,0)" xlink:href="#aA"/><use transform="matrix(0.05,0,0,0.05,24,0)" xlink:href="#aB"/></g><path d="M127-220V0H93v-220H8v-28h204v28h-85" id="bg"/><g id="A"><use transform="matrix(0.05,0,0,0.05,0,0)" xlink:href="#bg"/><use transform="matrix(0.05,0,0,0.05,8.950000000000001,0)" xlink:href="#aJ"/><use transform="matrix(0.05,0,0,0.05,18.950000000000003,0)" xlink:href="#aT"/><use transform="matrix(0.05,0,0,0.05,33.900000000000006,0)" xlink:href="#aU"/><use transform="matrix(0.05,0,0,0.05,43.900000000000006,0)" xlink:href="#aE"/><use transform="matrix(0.05,0,0,0.05,47.85000000000001,0)" xlink:href="#aO"/><use transform="matrix(0.05,0,0,0.05,57.85,0)" xlink:href="#aK"/><use transform="matrix(0.05,0,0,0.05,62.85,0)" xlink:href="#aJ"/></g><g id="B"><use transform="matrix(0.05,0,0,0.05,0,0)" xlink:href="#aS"/><use transform="matrix(0.05,0,0,0.05,12,0)" xlink:href="#aK"/><use transform="matrix(0.05,0,0,0.05,17,0)" xlink:href="#aO"/><use transform="matrix(0.05,0,0,0.05,27,0)" xlink:href="#aG"/><use transform="matrix(0.05,0,0,0.05,36,0)" xlink:href="#bb"/></g><linearGradient gradientUnits="userSpaceOnUse" id="C" x1="-694.04" y1="60" x2="-645.96" y2="20"><stop offset="0%" stop-color="#c8511b"/><stop offset="100%" stop-color="#f90"/></linearGradient><path d="M30 0v-248h187v28H63v79h144v27H63v87h162V0H30" id="bh"/><g id="D"><use transform="matrix(0.05,0,0,0.05,0,0)" xlink:href="#bh"/><use transform="matrix(0.05,0,0,0.05,12,0)" xlink:href="#aB"/><use transform="matrix(0.05,0,0,0.05,24.950000000000003,0)" xlink:href="#aL"/></g><g id="E"><use transform="matrix(0.05,0,0,0.05,0,0)" xlink:href="#ba"/><use transform="matrix(0.05,0,0,0.05,12,0)" xlink:href="#aO"/><use transform="matrix(0.05,0,0,0.05,22,0)" xlink:href="#aH"/><use transform="matrix(0.05,0,0,0.05,31,0)" xlink:href="#aK"/><use transform="matrix(0.05,0,0,0.05,36,0)" xlink:href="#aF"/><use transform="matrix(0.05,0,0,0.05,39.95,0)" xlink:href="#aY"/><use transform="matrix(0.05,0,0,0.05,49.95,0)" xlink:href="#aI"/></g><path d="M197 0v-115H63V0H30v-248h33v105h134v-105h34V0h-34" id="bi"/><g id="F"><use transform="matrix(0.05,0,0,0.05,0,0)" xlink:href="#bi"/><use transform="matrix(0.05,0,0,0.05,12.950000000000001,0)" xlink:href="#aY"/><use transform="matrix(0.05,0,0,0.05,22.950000000000003,0)" xlink:href="#aH"/><use transform="matrix(0.05,0,0,0.05,31.950000000000003,0)" xlink:href="#aK"/></g><path d="M33 0v-248h34V0H33" id="bj"/><g id="G"><use transform="matrix(0.05,0,0,0.05,0,0)" xlink:href="#aQ"/><use transform="matrix(0.05,0,0,0.05,12,0)" xlink:href="#aA"/><use transform="matrix(0.05,0,0,0.05,24,0)" xlink:href="#bj"/></g><path d="M143 4C61 4 22-44 18-125c-5-107 100-154 193-111 17 8 29 25 37 43l-32 9c-13-25-37-40-76-40-61 0-88 39-88 99 0 61 29 100 91 101 35 0 62-11 79-27v-45h-74v-28h105v86C228-13 192 4 143 4" id="bk"/><path d="M206 0h-36l-40-164L89 0H53L-1-190h32L70-26l43-164h34l41 164 42-164h31" id="bl"/><g id="H"><use transform="matrix(0.05,0,0,0.05,0,0)" xlink:href="#bk"/><use transform="matrix(0.05,0,0,0.05,14,0)" xlink:href="#aO"/><use transform="matrix(0.05,0,0,0.05,24,0)" xlink:href="#aK"/><use transform="matrix(0.05,0,0,0.05,29,0)" xlink:href="#aJ"/><use transform="matrix(0.05,0,0,0.05,39,0)" xlink:href="#bl"/><use transform="matrix(0.05,0,0,0.05,51.95,0)" xlink:href="#aO"/><use transform="matrix(0.05,0,0,0.05,61.95,0)" xlink:href="#aW"/></g><g id="I"><use transform="matrix(0.05,0,0,0.05,0,0)" xlink:href="#bj"/><use transform="matrix(0.05,0,0,0.05,5,0)" xlink:href="#aZ"/><use transform="matrix(0.05,0,0,0.05,15,0)" xlink:href="#aJ"/><use transform="matrix(0.05,0,0,0.05,25,0)" xlink:href="#aI"/><use transform="matrix(0.05,0,0,0.05,35,0)" xlink:href="#aK"/><use transform="matrix(0.05,0,0,0.05,40,0)" xlink:href="#aF"/><use transform="matrix(0.05,0,0,0.05,43.95,0)" xlink:href="#aK"/><use transform="matrix(0.05,0,0,0.05,48.95,0)" xlink:href="#aW"/></g><g id="J"><use transform="matrix(0.05,0,0,0.05,0,0)" xlink:href="#aO"/><use transform="matrix(0.05,0,0,0.05,10,0)" xlink:href="#aI"/><use transform="matrix(0.05,0,0,0.05,20,0)" xlink:href="#aZ"/></g><g id="K"><use transform="matrix(0.05,0,0,0.05,0,0)" xlink:href="#aQ"/><use transform="matrix(0.05,0,0,0.05,12,0)" xlink:href="#aG"/><use transform="matrix(0.05,0,0,0.05,21,0)" xlink:href="#aG"/><use transform="matrix(0.05,0,0,0.05,30,0)" xlink:href="#aJ"/><use transform="matrix(0.05,0,0,0.05,40,0)" xlink:href="#aH"/><use transform="matrix(0.05,0,0,0.05,49,0)" xlink:href="#aH"/></g><path d="M240 0l2-218c-23 76-54 145-80 218h-23L58-218 59 0H30v-248h44l77 211c21-75 51-140 76-211h43V0h-30" id="bm"/><g id="L"><use transform="matrix(0.05,0,0,0.05,0,0)" xlink:href="#bm"/><use transform="matrix(0.05,0,0,0.05,14.950000000000001,0)" xlink:href="#aO"/><use transform="matrix(0.05,0,0,0.05,24.950000000000003,0)" xlink:href="#aI"/><use transform="matrix(0.05,0,0,0.05,34.95,0)" xlink:href="#aO"/><use transform="matrix(0.05,0,0,0.05,44.95,0)" xlink:href="#aX"/><use transform="matrix(0.05,0,0,0.05,54.95,0)" xlink:href="#aJ"/><use transform="matrix(0.05,0,0,0.05,64.95,0)" xlink:href="#aT"/><use transform="matrix(0.05,0,0,0.05,79.9,0)" xlink:href="#aJ"/><use transform="matrix(0.05,0,0,0.05,89.9,0)" xlink:href="#aI"/><use transform="matrix(0.05,0,0,0.05,99.9,0)" xlink:href="#aK"/></g><path d="M87 75C49 33 22-17 22-94c0-76 28-126 65-167h31c-38 41-64 92-64 168S80 34 118 75H87" id="bn"/><path d="M33-261c38 41 65 92 65 168S71 34 33 75H2C39 34 66-17 66-93S39-220 2-261h31" id="bo"/><g id="M"><use transform="matrix(0.05,0,0,0.05,0,0)" xlink:href="#bn"/><use transform="matrix(0.05,0,0,0.05,5.95,0)" xlink:href="#bj"/><use transform="matrix(0.05,0,0,0.05,10.95,0)" xlink:href="#aQ"/><use transform="matrix(0.05,0,0,0.05,22.95,0)" xlink:href="#bm"/><use transform="matrix(0.05,0,0,0.05,37.9,0)" xlink:href="#bo"/></g><g id="N"><use transform="matrix(0.05,0,0,0.05,0,0)" xlink:href="#aV"/><use transform="matrix(0.05,0,0,0.05,5,0)" xlink:href="#aY"/><use transform="matrix(0.05,0,0,0.05,15,0)" xlink:href="#aM"/></g><g id="O"><use transform="matrix(0.05,0,0,0.05,0,0)" xlink:href="#aT"/><use transform="matrix(0.05,0,0,0.05,14.950000000000001,0)" xlink:href="#aO"/><use transform="matrix(0.05,0,0,0.05,24.950000000000003,0)" xlink:href="#aI"/><use transform="matrix(0.05,0,0,0.05,34.95,0)" xlink:href="#aO"/><use transform="matrix(0.05,0,0,0.05,44.95,0)" xlink:href="#aX"/><use transform="matrix(0.05,0,0,0.05,54.95,0)" xlink:href="#aF"/><use transform="matrix(0.05,0,0,0.05,58.900000000000006,0)" xlink:href="#aI"/><use transform="matrix(0.05,0,0,0.05,68.9,0)" xlink:href="#aX"/></g><g id="P"><use transform="matrix(0.05,0,0,0.05,0,0)" xlink:href="#aO"/><use transform="matrix(0.05,0,0,0.05,10,0)" xlink:href="#aG"/><use transform="matrix(0.05,0,0,0.05,19,0)" xlink:href="#aG"/><use transform="matrix(0.05,0,0,0.05,28,0)" xlink:href="#aJ"/><use transform="matrix(0.05,0,0,0.05,38,0)" xlink:href="#aH"/><use transform="matrix(0.05,0,0,0.05,47,0)" xlink:href="#aH"/></g><g id="Q"><use transform="matrix(0.05,0,0,0.05,0,0)" xlink:href="#aK"/><use transform="matrix(0.05,0,0,0.05,5,0)" xlink:href="#aY"/></g><g id="R"><use transform="matrix(0.05,0,0,0.05,0,0)" xlink:href="#aM"/><use transform="matrix(0.05,0,0,0.05,5.95,0)" xlink:href="#aJ"/><use transform="matrix(0.05,0,0,0.05,15.949999999999998,0)" xlink:href="#aH"/><use transform="matrix(0.05,0,0,0.05,24.95,0)" xlink:href="#aY"/><use transform="matrix(0.05,0,0,0.05,34.95,0)" xlink:href="#aC"/><use transform="matrix(0.05,0,0,0.05,44.95,0)" xlink:href="#aM"/><use transform="matrix(0.05,0,0,0.05,50.900000000000006,0)" xlink:href="#aG"/><use transform="matrix(0.05,0,0,0.05,59.900000000000006,0)" xlink:href="#aJ"/><use transform="matrix(0.05,0,0,0.05,69.9,0)" xlink:href="#aH"/></g><path d="M106-169C34-169 62-67 57 0H25v-261h32l-1 103c12-21 28-36 61-36 89 0 53 116 60 194h-32v-121c2-32-8-49-39-48" id="bp"/><g id="S"><use transform="matrix(0.05,0,0,0.05,0,0)" xlink:href="#aB"/><use transform="matrix(0.05,0,0,0.05,12.950000000000001,0)" xlink:href="#aE"/><use transform="matrix(0.05,0,0,0.05,16.900000000000002,0)" xlink:href="#aY"/><use transform="matrix(0.05,0,0,0.05,26.900000000000002,0)" xlink:href="#aC"/><use transform="matrix(0.05,0,0,0.05,36.900000000000006,0)" xlink:href="#aZ"/><use transform="matrix(0.05,0,0,0.05,46.900000000000006,0)" xlink:href="#aR"/><use transform="matrix(0.05,0,0,0.05,63.2,0)" xlink:href="#aO"/><use transform="matrix(0.05,0,0,0.05,73.2,0)" xlink:href="#aK"/><use transform="matrix(0.05,0,0,0.05,78.2,0)" xlink:href="#aG"/><use transform="matrix(0.05,0,0,0.05,87.2,0)" xlink:href="#bp"/></g><g id="T"><use transform="matrix(0.05,0,0,0.05,0,0)" xlink:href="#aT"/><use transform="matrix(0.05,0,0,0.05,14.950000000000001,0)" xlink:href="#aY"/><use transform="matrix(0.05,0,0,0.05,24.950000000000003,0)" xlink:href="#aI"/><use transform="matrix(0.05,0,0,0.05,34.95,0)" xlink:href="#aF"/><use transform="matrix(0.05,0,0,0.05,38.900000000000006,0)" xlink:href="#aK"/><use transform="matrix(0.05,0,0,0.05,43.900000000000006,0)" xlink:href="#aY"/><use transform="matrix(0.05,0,0,0.05,53.900000000000006,0)" xlink:href="#aM"/><use transform="matrix(0.05,0,0,0.05,59.85,0)" xlink:href="#aF"/><use transform="matrix(0.05,0,0,0.05,63.80000000000001,0)" xlink:href="#aI"/><use transform="matrix(0.05,0,0,0.05,73.80000000000001,0)" xlink:href="#aX"/></g><g id="U"><use transform="matrix(0.05,0,0,0.05,0,0)" xlink:href="#aE"/><use transform="matrix(0.05,0,0,0.05,3.95,0)" xlink:href="#aY"/><use transform="matrix(0.05,0,0,0.05,13.949999999999998,0)" xlink:href="#aX"/><use transform="matrix(0.05,0,0,0.05,23.95,0)" xlink:href="#aX"/><use transform="matrix(0.05,0,0,0.05,33.95,0)" xlink:href="#aF"/><use transform="matrix(0.05,0,0,0.05,37.900000000000006,0)" xlink:href="#aI"/><use transform="matrix(0.05,0,0,0.05,47.900000000000006,0)" xlink:href="#aX"/></g><path fill="#3a414a" d="M199 0l-22-63H83L61 0H9l90-248h61L250 0h-51zm-33-102l-36-108c-10 38-24 72-36 108h72" id="bq"/><path fill="#3a414a" d="M220-157c-53 9-28 100-34 157h-49v-107c1-27-5-49-29-50C55-147 81-57 75 0H25l-1-190h47c2 12-1 28 3 38 10-53 101-56 108 0 13-22 24-43 59-42 82 1 51 116 57 194h-49v-107c-1-25-5-48-29-50" id="br"/><path fill="#3a414a" d="M110-194c64 0 96 36 96 99 0 64-35 99-97 99-61 0-95-36-95-99 0-62 34-99 96-99zm-1 164c35 0 45-28 45-65 0-40-10-65-43-65-34 0-45 26-45 65 0 36 10 65 43 65" id="bs"/><path fill="#3a414a" d="M135-150c-39-12-60 13-60 57V0H25l-1-190h47c2 13-1 29 3 40 6-28 27-53 61-41v41" id="bt"/><path fill="#3a414a" d="M169-182c-1-43-94-46-97-3 18 66 151 10 154 114 3 95-165 93-204 36-6-8-10-19-12-30l50-8c3 46 112 56 116 5-17-69-150-10-154-114-4-87 153-88 188-35 5 8 8 18 10 28" id="bu"/><path fill="#3a414a" d="M185-48c-13 30-37 53-82 52C43 2 14-33 14-96s30-98 90-98c62 0 83 45 84 108H66c0 31 8 55 39 56 18 0 30-7 34-22zm-45-69c5-46-57-63-70-21-2 6-4 13-4 21h74" id="bv"/><path fill="#3a414a" d="M128 0H69L1-190h53L99-40l48-150h52" id="bw"/><g id="V"><use transform="matrix(0.0987654320987654,0,0,0.0987654320987654,0,0)" xlink:href="#bq"/><use transform="matrix(0.0987654320987654,0,0,0.0987654320987654,25.58024691358024,0)" xlink:href="#br"/><use transform="matrix(0.0987654320987654,0,0,0.0987654320987654,57.18518518518517,0)" xlink:href="#bs"/><use transform="matrix(0.0987654320987654,0,0,0.0987654320987654,78.8148148148148,0)" xlink:href="#bt"/><use transform="matrix(0.0987654320987654,0,0,0.0987654320987654,92.64197530864195,0)" xlink:href="#bu"/><use transform="matrix(0.0987654320987654,0,0,0.0987654320987654,116.34567901234564,0)" xlink:href="#bv"/><use transform="matrix(0.0987654320987654,0,0,0.0987654320987654,136.09876543209873,0)" xlink:href="#bt"/><use transform="matrix(0.0987654320987654,0,0,0.0987654320987654,149.9259259259259,0)" xlink:href="#bw"/></g><path fill="#3a414a" d="M24 0v-248h52v208h133V0H24" id="bx"/><path fill="#3a414a" d="M67-125c0 53 21 87 73 88 37 1 54-22 65-47l45 17C233-25 199 4 140 4 58 4 20-42 15-125 8-235 124-281 211-232c18 10 29 29 36 50l-46 12c-8-25-30-41-62-41-52 0-71 34-72 86" id="by"/><g id="W"><use transform="matrix(0.0987654320987654,0,0,0.0987654320987654,0,0)" xlink:href="#bx"/><use transform="matrix(0.0987654320987654,0,0,0.0987654320987654,21.629629629629623,0)" xlink:href="#bx"/><use transform="matrix(0.0987654320987654,0,0,0.0987654320987654,43.259259259259245,0)" xlink:href="#by"/></g><path fill="#3a414a" d="M275 0h-61l-44-196L126 0H64L0-248h53L97-49l45-199h58l43 199 44-199h52" id="bz"/><g id="X"><use transform="matrix(0.0987654320987654,0,0,0.0987654320987654,0,0)" xlink:href="#bq"/><use transform="matrix(0.0987654320987654,0,0,0.0987654320987654,23.604938271604933,0)" xlink:href="#bz"/><use transform="matrix(0.0987654320987654,0,0,0.0987654320987654,57.0864197530864,0)" xlink:href="#bu"/></g><path fill="#3a414a" d="M240-174c0 40-23 61-54 70L253 0h-59l-57-94H76V0H24v-248c93 4 217-23 216 74zM76-134c48-2 112 12 112-38 0-48-66-32-112-35v73" id="bA"/><path fill="#3a414a" d="M186 0v-106H76V0H24v-248h52v99h110v-99h50V0h-50" id="bB"/><path fill="#3a414a" d="M24 0v-248h52V0H24" id="bC"/><path fill="#3a414a" d="M136-208V0H84v-208H4v-40h212v40h-80" id="bD"/><path fill="#3a414a" d="M24 0v-248h195v40H76v63h132v40H76v65h150V0H24" id="bE"/><path fill="#3a414a" d="M238-95c0 69-44 99-111 99C63 4 22-25 22-93v-155h51v151c-1 38 19 59 55 60 90 1 49-130 58-211h52v153" id="bF"/><g id="Y"><use transform="matrix(0.0987654320987654,0,0,0.0987654320987654,0,0)" xlink:href="#bq"/><use transform="matrix(0.0987654320987654,0,0,0.0987654320987654,25.58024691358024,0)" xlink:href="#bA"/><use transform="matrix(0.0987654320987654,0,0,0.0987654320987654,51.16049382716048,0)" xlink:href="#by"/><use transform="matrix(0.0987654320987654,0,0,0.0987654320987654,76.74074074074072,0)" xlink:href="#bB"/><use transform="matrix(0.0987654320987654,0,0,0.0987654320987654,102.32098765432096,0)" xlink:href="#bC"/><use transform="matrix(0.0987654320987654,0,0,0.0987654320987654,112.19753086419749,0)" xlink:href="#bD"/><use transform="matrix(0.0987654320987654,0,0,0.0987654320987654,133.82716049382714,0)" xlink:href="#bE"/><use transform="matrix(0.0987654320987654,0,0,0.0987654320987654,157.53086419753083,0)" xlink:href="#by"/><use transform="matrix(0.0987654320987654,0,0,0.0987654320987654,183.1111111111111,0)" xlink:href="#bD"/><use transform="matrix(0.0987654320987654,0,0,0.0987654320987654,204.7407407407407,0)" xlink:href="#bF"/><use transform="matrix(0.0987654320987654,0,0,0.0987654320987654,230.32098765432096,0)" xlink:href="#bA"/><use transform="matrix(0.0987654320987654,0,0,0.0987654320987654,255.90123456790118,0)" xlink:href="#bE"/></g><g id="Z"><use transform="matrix(0.05,0,0,0.05,0,0)" xlink:href="#bj"/><use transform="matrix(0.05,0,0,0.05,5,0)" xlink:href="#aI"/><use transform="matrix(0.05,0,0,0.05,15,0)" xlink:href="#aK"/><use transform="matrix(0.05,0,0,0.05,20,0)" xlink:href="#aJ"/><use transform="matrix(0.05,0,0,0.05,30,0)" xlink:href="#aM"/><use transform="matrix(0.05,0,0,0.05,35.95,0)" xlink:href="#aI"/><use transform="matrix(0.05,0,0,0.05,45.95,0)" xlink:href="#aJ"/><use transform="matrix(0.05,0,0,0.05,55.95,0)" xlink:href="#aK"/></g><g id="aa"><use transform="matrix(0.05,0,0,0.05,0,0)" xlink:href="#aX"/><use transform="matrix(0.05,0,0,0.05,10,0)" xlink:href="#aO"/><use transform="matrix(0.05,0,0,0.05,20,0)" xlink:href="#aK"/><use transform="matrix(0.05,0,0,0.05,25,0)" xlink:href="#aJ"/><use transform="matrix(0.05,0,0,0.05,35,0)" xlink:href="#bl"/><use transform="matrix(0.05,0,0,0.05,47.95,0)" xlink:href="#aO"/><use transform="matrix(0.05,0,0,0.05,57.95,0)" xlink:href="#aW"/></g><g id="ab"><use transform="matrix(0.05,0,0,0.05,0,0)" xlink:href="#bf"/><use transform="matrix(0.05,0,0,0.05,12.950000000000001,0)" xlink:href="#aY"/><use transform="matrix(0.05,0,0,0.05,22.950000000000003,0)" xlink:href="#aC"/><use transform="matrix(0.05,0,0,0.05,32.95,0)" xlink:href="#aK"/><use transform="matrix(0.05,0,0,0.05,37.95,0)" xlink:href="#aJ"/></g><g id="ac"><use transform="matrix(0.05,0,0,0.05,0,0)" xlink:href="#aK"/><use transform="matrix(0.05,0,0,0.05,5,0)" xlink:href="#aO"/><use transform="matrix(0.05,0,0,0.05,15,0)" xlink:href="#aD"/><use transform="matrix(0.05,0,0,0.05,25,0)" xlink:href="#aE"/><use transform="matrix(0.05,0,0,0.05,28.950000000000003,0)" xlink:href="#aJ"/></g></defs></g></svg>